<svg width="39" height="32" viewBox="0 0 39 32" fill="none" xmlns="http://www.w3.org/2000/svg">
<path d="M0.0925293 2.33459V23.7538C0.0925293 24.6314 0.803123 24.8852 1.67806 24.8852H18.3296H36.9782L38.946 21.7436V2.33459C38.946 1.45698 38.2355 0.748413 37.3605 0.748413H1.67806C0.803123 0.748413 0.0925293 1.4593 0.0925293 2.33459Z" fill="#172166"/>
<path d="M17.756 23.7525H37.1087V17.4147V2.33325H1.42627V23.7525H17.756Z" fill="white"/>
<g clip-path="url(#clip0)">
<path d="M19.5162 15.9682C19.938 15.9682 20.3256 16.1159 20.6305 16.3617L19.5162 17.7407L18.4019 16.3617C18.717 16.1063 19.1105 15.9674 19.5162 15.9682ZM14.0852 6.1562L24.5294 16.601L23.694 17.4364L20.6334 14.3759C20.2731 14.2563 19.8958 14.1955 19.5162 14.1957C18.6725 14.1957 17.8973 14.4905 17.2887 14.9827L16.5466 14.0633C17.323 13.4344 18.2795 13.0689 19.2775 13.0199L17.7437 11.4861C16.9001 11.7252 16.1137 12.1331 15.4323 12.6849L14.6891 11.7656C15.3259 11.2499 16.0412 10.8396 16.8078 10.5502L15.4583 9.20018C14.7866 9.52006 14.155 9.91808 13.5765 10.386L12.8333 9.46723C13.3739 9.03002 13.9576 8.64539 14.5774 8.31984L13.2492 6.99223L14.0852 6.1562ZM20.9933 11.4099L19.6438 10.061L19.5162 10.0598C21.3448 10.0598 23.0239 10.6985 24.3433 11.7656L23.6 12.6849C22.8387 12.0682 21.9474 11.6322 20.9933 11.4099ZM19.5162 7.10567C22.0479 7.10567 24.3728 7.99015 26.1985 9.46723L25.4558 10.386C23.7757 9.02508 21.6783 8.28402 19.5162 8.28734C18.9974 8.28734 18.4881 8.3287 17.9918 8.40964L16.9904 7.407C17.7992 7.21025 18.6459 7.10567 19.5162 7.10567Z" fill="#ED513F"/>
</g>
<path d="M22.422 25.1999C22.422 24.7466 21.9409 24.2516 21.2 24.2516H19.6373C18.8964 24.2516 18.0789 24.6606 17.8192 25.0852L14.5065 30.4805C14.2468 30.9051 14.6385 31.2516 15.3794 31.2516H21.2042C21.9451 31.2516 22.4263 30.9416 22.4263 30.4883V25.1999H22.422Z" fill="#172166"/>
<path d="M17.4305 25.1999C17.4305 24.7466 17.9117 24.2516 18.6526 24.2516H20.2152C20.9561 24.2516 21.7736 24.6606 22.0334 25.0852L25.346 30.4805C25.6058 30.9051 25.214 31.2516 24.4731 31.2516H18.6483C17.9074 31.2516 17.4263 30.9416 17.4263 30.4883V25.1999H17.4305Z" fill="#172166"/>
<path d="M0 21.1155L0.0926143 23.754C0.0926143 24.6316 0.917412 24.8854 1.79235 24.8854H36.4426V21.1155H0Z" fill="#070F3F"/>
<path d="M38.9558 21.1155L38.8632 23.754C38.8632 24.6316 38.0384 24.8854 37.1635 24.8854H1.25662V21.1155H38.9558Z" fill="#070F3F"/>
<defs>
<clipPath id="clip0">
<rect width="14.18" height="14.18" fill="white" transform="translate(12.4263 5.33325)"/>
</clipPath>
</defs>
</svg>
