<svg width="43" height="25" viewBox="0 0 43 25" fill="none" xmlns="http://www.w3.org/2000/svg">
<path d="M31.7181 5.83203H31.3817V7.51421H31.7181V5.83203Z" fill="#664635"/>
<path d="M38.4949 5.83203H38.1584V7.51421H38.4949V5.83203Z" fill="#664635"/>
<path d="M25.4219 5.83203H25.0854V7.51421H25.4219V5.83203Z" fill="#664635"/>
<path d="M2.20784 20.2051H1.43884V23.9539H2.20784V20.2051Z" fill="#967245"/>
<path d="M5.18378 14.293L1.67908 14.7717L1.81173 24.0515H6.3142L5.18378 14.293Z" fill="#967245"/>
<path d="M19.5179 5.60742H12.0509L10.1842 9.40434H19.5179V5.60742Z" fill="#C8DBD9"/>
<path d="M18.2375 5.60742H10.7706L8.90381 9.40434H18.2375V5.60742Z" fill="#859997"/>
<path d="M15.9057 6.07422H11.6301L10.5612 9.1329H15.9057V6.07422Z" fill="#485B59"/>
<path d="M38.6891 7.36719H1.35437L3.44027 24.1621H37.3568L38.6891 7.36719Z" fill="#DB9C6E"/>
<path d="M39.5236 7.36719H2.18689L4.27279 24.1621H38.1913L39.5236 7.36719Z" fill="#F4C49D"/>
<path d="M38.7353 8.36328L3.80945 8.74778L5.25901 24.0085H37.2454L38.7353 8.36328Z" fill="#A05A44"/>
<path d="M33.9287 21.8354H33.7441V24.0078H33.8403V21.895H37.4469L37.4565 21.7988H33.9287V21.8354Z" fill="#753827"/>
<path d="M29.0032 21.8354V21.7988H24.3277V21.8354H24.1432V24.0078H24.2393V21.895H28.9725V24.0078H29.0686V21.8354H29.0032Z" fill="#753827"/>
<path d="M19.4025 21.8354V21.7988H14.7885V21.8354H14.6021V24.0078H14.6982V21.895H19.4333V24.0078H19.5294V21.8354H19.4025Z" fill="#753827"/>
<path d="M9.86125 21.8354V21.7988H5.18768V21.8354H5.0531L5.09924 22.3179V21.895H9.83241V24.0078H9.92854V21.8354H9.86125Z" fill="#753827"/>
<path d="M29.1227 19.3262H29.0032V19.4168H29.1227V19.3262Z" fill="#753827"/>
<path d="M33.8325 19.4223V21.7408H29.0993V19.5127H29.0032V21.8004V21.8369H29.0685H33.744H33.9286V21.8004V19.3262H29.2185V19.4223H33.8325Z" fill="#753827"/>
<path d="M29.063 17H24.3895V17.0058H24.2933V19.3243H24.3299V19.5108H29.0034H29.0996H29.2188V19.4204V19.3243V17.0058H29.063V17ZM29.1226 17.0961V19.3262V19.4166H29.0034H24.3895V17.098H29.1226V17.0961Z" fill="#753827"/>
<path d="M29.1591 14.6499H29.063V16.9991V17.0049H29.2187H33.9884V14.6499H33.8923V16.9088H29.1591V14.5903H33.7731V14.4941H29.1591V14.6499Z" fill="#753827"/>
<path d="M33.9888 14.4941H33.8693V14.5539H33.9888V14.4941Z" fill="#753827"/>
<path d="M19.5219 19.3262H19.4023V19.4168H19.5219V19.3262Z" fill="#753827"/>
<path d="M24.3278 19.3262H24.2912H19.6177V19.4223H24.2316V21.7408H19.4985V19.5127H19.4023V21.8004V21.8369H19.5292H24.1432H24.3278V21.8004V19.5127V19.3262Z" fill="#753827"/>
<path d="M14.7886 19.3243V19.5108H19.4026H19.4987H19.6179V19.4204V19.3243V17.0058H19.4622V17H14.8482V17.0058H14.6925V19.3243H14.7886ZM14.7886 17.0961H19.5218V19.3262V19.4166H19.4026H14.7886V17.0961Z" fill="#753827"/>
<path d="M24.3873 14.4941H24.3278V14.5537H24.3873V14.4941Z" fill="#753827"/>
<path d="M19.462 17.0049H19.6178H24.2913H24.3894V16.9991V14.6499H24.2933V16.9088H19.5582V14.5903H24.2317V14.4941H19.5582V14.6499H19.462V16.9991V17.0049Z" fill="#753827"/>
<path d="M9.98077 19.3262H9.86121V19.4168H9.98077V19.3262Z" fill="#753827"/>
<path d="M14.7885 19.3262H14.6924H10.0784V19.4223H14.6924V21.7408H9.95733V19.5127H9.86121V21.8004V21.8369H9.92849H14.6021H14.7885V21.8004V19.5127V19.3262Z" fill="#753827"/>
<path d="M5.151 17.0058V19.3243H5.18753V19.5108H9.8611H9.95723H10.0764V19.4204V19.3243V17.0058H9.9207V17H5.24713V17.0058H5.151ZM9.98222 17.0961V19.3262V19.4166H9.86303H5.24905V17.098H9.98222V17.0961Z" fill="#753827"/>
<path d="M14.8484 14.4941H14.7289V14.5539H14.8484V14.4941Z" fill="#753827"/>
<path d="M10.0783 17.0049H14.6923H14.848V16.9991V14.6499H14.7519V16.9088H10.0187V14.5903H14.6327V14.4941H9.92261V16.9991V17.0049H10.0783Z" fill="#753827"/>
<path d="M5.18742 21.8004V19.5127V19.3262H5.15089H4.81445L4.82406 19.4223H5.09129V21.7408H5.04323L5.05284 21.8369H5.18742V21.8004Z" fill="#753827"/>
<path d="M5.24713 17.0049V16.9991V14.4941H4.3551L4.36471 14.5903H5.15101V16.9088H4.5858L4.59349 17.0049H5.15101H5.24713Z" fill="#753827"/>
<path d="M33.9884 12.2367H38.3659L38.3755 12.1406H33.9884V12.2367Z" fill="#753827"/>
<path d="M33.8925 12.1406H33.7729V12.2313H33.8925V12.1406Z" fill="#753827"/>
<path d="M33.8691 14.5543V14.4947V12.3242H33.7729V14.4947V14.5908V14.6504H33.8921H33.9883H38.137L38.1447 14.5543H33.9883H33.8691Z" fill="#753827"/>
<path d="M29.1591 12.1407V12.3272H33.7731H33.8692H33.9884V12.2368V12.1407V9.82217H33.8327V9.81641H29.2187V9.82217H29.063V12.1407H29.1591ZM29.1591 9.91061H33.8923V12.1407V12.2311H33.7731H29.1591V9.91061Z" fill="#753827"/>
<path d="M38.7349 8.36328H38.6617V9.12347L38.7349 8.36328Z" fill="#753827"/>
<path d="M33.8328 9.82136H33.9885H38.5967L38.6063 9.72523H33.9289V8.41602H33.8328V9.81367V9.82136Z" fill="#753827"/>
<path d="M24.3514 12.1406H24.2318V12.2313H24.3514V12.1406Z" fill="#753827"/>
<path d="M24.2318 14.5918V14.6514H24.2933H24.3895H29.063H29.1592V14.4957V12.3252V12.1406H29.063H24.4471V12.2367H29.063V14.5553H24.3895H24.3279V14.4957V12.3252H24.2318V14.4957V14.5918Z" fill="#753827"/>
<path d="M19.5579 12.1407V12.3272H24.2315H24.3276H24.4468V12.2368V12.1407V9.82217H24.2911V9.81641H19.6175V9.82217H19.5214V12.1407H19.5579ZM19.6175 9.91061H24.3507V12.1407V12.2311H24.2315H19.6175V9.91061Z" fill="#753827"/>
<path d="M24.2913 9.82413H24.447H29.0629H29.2186V9.81645V8.4707H29.1225V9.72801H24.3874V8.52261L24.2913 8.52453V9.81645V9.82413Z" fill="#753827"/>
<path d="M14.6329 14.6514H14.7521H14.8483H19.4622H19.5584V14.4957V12.3252V12.1406H19.5218H14.8483V12.2367H19.4622V14.5553H14.8483H14.7291V14.4957V12.3252H14.6329V14.4957V14.5918V14.6514Z" fill="#753827"/>
<path d="M14.7525 12.1406H14.6329V12.2313H14.7525V12.1406Z" fill="#753827"/>
<path d="M14.848 12.3252V12.2349V12.1387V9.82022H14.6923V9.81445H9.92261V12.3252H14.6327H14.7288H14.848ZM10.0187 12.2291V9.91058H14.7519V12.1407V12.231H14.6327H10.0187V12.2291Z" fill="#753827"/>
<path d="M14.6925 9.81996H14.8482H19.5218H19.6179V9.81227V8.57227H19.5218V9.72384H14.7886V8.62417L14.6925 8.6261V9.81227V9.81996Z" fill="#753827"/>
<path d="M5.20898 23.4824L5.25897 24.0111H37.2454L37.2953 23.4824H5.20898Z" fill="#823B27"/>
<path d="M4.8995 11.4569L3.80945 8.75L5.25901 24.0107H6.49517L4.8995 11.4569Z" fill="#C66146"/>
<path d="M14.7447 11.9824H8.93298L9.46167 21.3257H15.2734L14.7447 11.9824Z" fill="#F4C49D"/>
<path d="M14.5311 12.2246H9.19043L9.6749 21.3257H15.0175L14.5311 12.2246Z" fill="#345B59"/>
<path d="M14.2312 12.4199H9.55188L9.97675 21.1365H14.6561L14.2312 12.4199Z" fill="#72B2B1"/>
<path d="M14.2311 12.4199H12.9719L9.72095 15.9054L9.97664 21.1365H11.2359L14.4849 17.6529L14.2311 12.4199Z" fill="#92CCC9"/>
<path d="M14.735 19.252H9.80188V19.5249H14.735V19.252Z" fill="#345B59"/>
<path d="M15.0558 19.1426H9.44983V19.3579H15.0558V19.1426Z" fill="#F4C49D"/>
<path d="M14.735 18.4082H9.80188V18.6812H14.735V18.4082Z" fill="#345B59"/>
<path d="M15.0558 18.3027H9.44983V18.5181H15.0558V18.3027Z" fill="#F4C49D"/>
<path d="M14.8558 20.1172H9.92273V20.3902H14.8558V20.1172Z" fill="#345B59"/>
<path d="M15.1753 20.0078H9.56934V20.2231H15.1753V20.0078Z" fill="#F4C49D"/>
<path d="M14.3982 12.9766H9.46509V13.2496H14.3982V12.9766Z" fill="#345B59"/>
<path d="M14.7195 12.8691H9.11353V13.0845H14.7195V12.8691Z" fill="#F4C49D"/>
<path d="M36.0438 11.8887H17.2227V20.3322H35.4671L36.0438 11.8887Z" fill="#F4C49D"/>
<path d="M35.6112 12.1777H17.6552V20.0388H35.0614L35.6112 12.1777Z" fill="#345B59"/>
<path d="M35.3228 12.4199H17.9435V19.8004H34.7903L35.3228 12.4199Z" fill="#72B2B1"/>
<path d="M28.1615 19.8004L35.3055 12.6545L35.3228 12.4199H25.1048L17.9435 19.5831V19.8004H28.1615Z" fill="#92CCC9"/>
<path d="M17.7338 20.9434H4.84924V24.1635H17.7338V20.9434Z" fill="#F4C49D"/>
<path d="M22.9169 23.082H14.0735V24.1644H22.9169V23.082Z" fill="#F4C49D"/>
<path d="M20.5005 22.3184H14.9521V23.4007H20.5005V22.3184Z" fill="#F4C49D"/>
<path opacity="0.7" d="M3.84204 8.75L4.84558 11.4569L34.6442 11.4338L33.8809 24.0107H37.0185L38.0854 8.75H3.84204Z" fill="#7C5959"/>
<path d="M15.4505 17.5605L14.9924 17.8011V17.9936L15.4505 17.753V17.5605Z" fill="#F4C49D"/>
<path d="M15.341 15.663L14.8484 15.5109L14.8137 15.3262L15.3064 15.4763L15.341 15.663Z" fill="#F4C49D"/>
<path d="M15.3211 15.4785L15.2 15.5131L15.3288 17.7163L15.4576 17.7471L15.3211 15.4785Z" fill="#F4C49D"/>
<path d="M2.25606 15.9746H1.48706V19.1948H2.25606V15.9746Z" fill="#967245"/>
<path d="M18.4164 23.168V22.4663L15.896 22.4682V21.2109L3.74585 21.2205L4.16688 24.1696L12.5662 24.1639L15.8979 24.162L20.6176 24.1581L20.6157 23.1661L18.4164 23.168Z" fill="#DB9C6E"/>
<path d="M42.8685 23.8574H0.57373V24.338H42.8685V23.8574Z" fill="#664635"/>
<path d="M8.47529 14.0371H6.18176L6.51435 17.4015H8.80788L8.47529 14.0371Z" fill="#823B27"/>
<path d="M8.50773 13.875H6.21228L6.5468 17.2394H8.84033L8.50773 13.875Z" fill="#C98D7D"/>
<path d="M8.55392 14.3438L6.44495 16.2201L6.54684 17.2409H7.31583L8.71732 15.9952L8.55392 14.3438Z" fill="#DDA89E"/>
<path d="M19.8299 12.3059L19.7117 19.9316L19.8385 19.9336L19.9568 12.3079L19.8299 12.3059Z" fill="#345B59"/>
<path d="M24.0912 12.3059L23.973 19.9316L24.0999 19.9336L24.2181 12.3079L24.0912 12.3059Z" fill="#345B59"/>
<path d="M28.9297 12.3059L28.8115 19.9316L28.9384 19.9336L29.0566 12.3079L28.9297 12.3059Z" fill="#345B59"/>
<path d="M32.8071 12.3039L32.6888 19.9297L32.8157 19.9317L32.9339 12.3059L32.8071 12.3039Z" fill="#345B59"/>
<path d="M41.8438 0.162109H21.3693V6.4102H41.8438V0.162109Z" fill="#ED9E37"/>
<path d="M40.0329 0.162109H29.1074L23.1785 6.4102H34.1059L40.0329 0.162109Z" fill="#FFB448"/>
<path d="M25.9471 4.67194C25.7572 4.67194 25.5729 4.63954 25.3942 4.57475C25.2154 4.50772 25.0802 4.4284 24.9886 4.33679C24.9685 4.31668 24.9674 4.29658 24.9853 4.27647L25.3405 3.85753C25.3539 3.83966 25.3685 3.83854 25.3841 3.85418C25.4534 3.91674 25.5383 3.96925 25.6388 4.0117C25.7394 4.05415 25.8399 4.07538 25.9404 4.07538C26.1147 4.07538 26.2019 4.02622 26.2019 3.92791C26.2019 3.89663 26.1862 3.87206 26.1549 3.85418C26.1259 3.83407 26.07 3.81843 25.9874 3.80726L25.8667 3.7905C25.6008 3.75252 25.4009 3.6732 25.2668 3.55255C25.1327 3.42966 25.0657 3.25762 25.0657 3.03642C25.0657 2.81969 25.1461 2.64541 25.307 2.51359C25.4679 2.37953 25.6835 2.3125 25.9539 2.3125C26.2979 2.3125 26.585 2.39964 26.8152 2.57392C26.8375 2.58732 26.8398 2.60631 26.8219 2.63089L26.5203 3.05988C26.5068 3.07775 26.4912 3.08111 26.4733 3.06993C26.308 2.96045 26.1438 2.90571 25.9807 2.90571C25.8511 2.90571 25.7863 2.94705 25.7863 3.02972C25.7863 3.06323 25.8019 3.09004 25.8332 3.11015C25.8667 3.12803 25.9237 3.14255 26.0041 3.15372L26.1248 3.17048C26.3974 3.20846 26.5985 3.2889 26.728 3.41179C26.8576 3.53244 26.9224 3.70448 26.9224 3.92791C26.9224 4.15135 26.8375 4.33121 26.6677 4.4675C26.4979 4.60379 26.2577 4.67194 25.9471 4.67194Z" fill="#FFF6B8"/>
<path d="M28.4206 4.63172H27.7838C27.7615 4.63172 27.7503 4.62055 27.7503 4.59821V2.9962C27.7503 2.9828 27.7436 2.97609 27.7302 2.97609H27.1906C27.1683 2.97609 27.1571 2.96492 27.1571 2.94258V2.38623C27.1571 2.36389 27.1683 2.35272 27.1906 2.35272H29.0138C29.0362 2.35272 29.0473 2.36389 29.0473 2.38623V2.94258C29.0473 2.96492 29.0362 2.97609 29.0138 2.97609H28.4742C28.4608 2.97609 28.4541 2.9828 28.4541 2.9962V4.59821C28.4541 4.62055 28.443 4.63172 28.4206 4.63172Z" fill="#FFF6B8"/>
<path d="M30.8596 4.52783C30.7032 4.6239 30.5189 4.67194 30.3066 4.67194C30.0943 4.67194 29.9089 4.6239 29.7502 4.52783C29.5938 4.43175 29.4855 4.29099 29.4252 4.10554C29.3782 3.95808 29.3548 3.75364 29.3548 3.49222C29.3548 3.23081 29.3782 3.02637 29.4252 2.8789C29.4855 2.69345 29.5938 2.55269 29.7502 2.45661C29.9089 2.36054 30.0943 2.3125 30.3066 2.3125C30.5189 2.3125 30.7032 2.36054 30.8596 2.45661C31.0182 2.55269 31.1277 2.69345 31.188 2.8789C31.235 3.0286 31.2584 3.23304 31.2584 3.49222C31.2584 3.75364 31.235 3.95808 31.188 4.10554C31.1277 4.29099 31.0182 4.43175 30.8596 4.52783ZM30.0921 3.90445C30.1234 4.00053 30.1949 4.04857 30.3066 4.04857C30.4183 4.04857 30.4898 4.00053 30.5211 3.90445C30.539 3.84859 30.5479 3.71118 30.5479 3.49222C30.5479 3.27326 30.539 3.13585 30.5211 3.07999C30.4898 2.98391 30.4183 2.93588 30.3066 2.93588C30.1949 2.93588 30.1234 2.98391 30.0921 3.07999C30.0742 3.13585 30.0653 3.27326 30.0653 3.49222C30.0653 3.71118 30.0742 3.84859 30.0921 3.90445Z" fill="#FFF6B8"/>
<path d="M33.5726 4.63172H32.8721C32.8475 4.63172 32.8308 4.62055 32.8218 4.59821L32.5302 3.8877H32.4129C32.3995 3.8877 32.3928 3.8944 32.3928 3.9078V4.59821C32.3928 4.62055 32.3817 4.63172 32.3593 4.63172H31.7259C31.7035 4.63172 31.6924 4.62055 31.6924 4.59821V2.38623C31.6924 2.36389 31.7035 2.35272 31.7259 2.35272H32.6777C32.9615 2.35272 33.1782 2.4231 33.3279 2.56386C33.4798 2.70462 33.5558 2.89007 33.5558 3.12021C33.5558 3.4129 33.4419 3.62628 33.214 3.76034L33.596 4.59486C33.605 4.61944 33.5971 4.63172 33.5726 4.63172ZM32.6241 3.32465C32.776 3.32465 32.852 3.25985 32.852 3.13026C32.852 3.00067 32.776 2.93588 32.6241 2.93588H32.4129C32.3995 2.93588 32.3928 2.94258 32.3928 2.95598V3.30454C32.3928 3.31794 32.3995 3.32465 32.4129 3.32465H32.6241Z" fill="#FFF6B8"/>
<path d="M34.006 4.59821V2.38623C34.006 2.36389 34.0171 2.35272 34.0395 2.35272H35.5644C35.5868 2.35272 35.5979 2.36389 35.5979 2.38623V2.90236C35.5979 2.9247 35.5868 2.93588 35.5644 2.93588H34.7232C34.7098 2.93588 34.7031 2.94258 34.7031 2.95598V3.17718C34.7031 3.19059 34.7098 3.19729 34.7232 3.19729H35.3968C35.4192 3.19729 35.4304 3.20846 35.4304 3.23081V3.73353C35.4304 3.75587 35.4192 3.76704 35.3968 3.76704H34.7232C34.7098 3.76704 34.7031 3.77375 34.7031 3.78715V4.02846C34.7031 4.04186 34.7098 4.04857 34.7232 4.04857H35.5644C35.5868 4.04857 35.5979 4.05974 35.5979 4.08208V4.59821C35.5979 4.62055 35.5868 4.63172 35.5644 4.63172H34.0395C34.0171 4.63172 34.006 4.62055 34.006 4.59821Z" fill="#FFF6B8"/>
<path d="M37.0363 4.59821V4.14911C37.0363 4.13124 37.0419 4.1156 37.0531 4.10219L37.8541 3.26767C37.93 3.18947 37.968 3.10792 37.968 3.02301C37.968 2.90683 37.9166 2.84874 37.8138 2.84874C37.7044 2.84874 37.644 2.92806 37.6329 3.08669C37.6329 3.11127 37.6206 3.12132 37.596 3.11686L37.0698 3.04647C37.0497 3.04424 37.0396 3.03195 37.0396 3.00961C37.0486 2.80182 37.1279 2.63424 37.2776 2.50689C37.4295 2.3773 37.6195 2.3125 37.8474 2.3125C38.0708 2.3125 38.2551 2.37618 38.4003 2.50353C38.5456 2.63089 38.6182 2.794 38.6182 2.99285C38.6182 3.20958 38.5277 3.41067 38.3467 3.59612L37.8775 4.07538V4.08208H38.5847C38.607 4.08208 38.6182 4.09325 38.6182 4.1156V4.59821C38.6182 4.62055 38.607 4.63172 38.5847 4.63172H37.0698C37.0475 4.63172 37.0363 4.62055 37.0363 4.59821Z" fill="#FFF6B8"/>
</svg>
