<svg width="43" height="43" viewBox="0 0 43 43" fill="none" xmlns="http://www.w3.org/2000/svg">
<mask id="mask0" style="mask-type:alpha" maskUnits="userSpaceOnUse" x="0" y="0" width="43" height="43">
<rect x="0.574219" y="0.573242" width="42" height="42" fill="#C4C4C4"/>
</mask>
<g mask="url(#mask0)">
<path d="M41.4557 33.0327C41.4549 34.0121 41.0651 34.9512 40.372 35.6433C39.6789 36.3354 38.7393 36.7239 37.7599 36.7233L19.4026 36.7119C18.4232 36.7111 17.4843 36.3215 16.7921 35.6287C16.1 34.9359 15.7113 33.9965 15.7115 33.0172L15.7272 4.69017C15.7275 4.20525 15.8233 3.72514 16.0093 3.27726C16.1952 2.82939 16.4675 2.42252 16.8106 2.07991C17.1538 1.73729 17.5611 1.46564 18.0093 1.28047C18.4575 1.0953 18.9377 1.00024 19.4227 1.00071L37.7805 1.01037C38.7597 1.01125 39.6985 1.4009 40.3905 2.09367C41.0825 2.78645 41.4711 3.72565 41.4709 4.70484L41.4559 33.0321" fill="#C3C3C3"/>
<g filter="url(#filter0_d)">
<path d="M40.8978 32.4177C40.8977 32.8816 40.8062 33.3408 40.6285 33.7693C40.4508 34.1978 40.1904 34.587 39.8622 34.9148C39.534 35.2425 39.1444 35.5023 38.7156 35.6794C38.2869 35.8564 37.8275 35.9473 37.3636 35.9466L19.7973 35.9385C19.3335 35.9383 18.8742 35.8467 18.4459 35.6689C18.0175 35.4912 17.6283 35.2308 17.3006 34.9026C16.9729 34.5744 16.713 34.1848 16.5359 33.7562C16.3588 33.3275 16.2679 32.8682 16.2683 32.4044L16.2839 5.30114C16.2841 4.83732 16.3756 4.37807 16.5533 3.94964C16.7311 3.52122 16.9915 3.13202 17.3197 2.80429C17.6479 2.47656 18.0375 2.21672 18.4662 2.03964C18.8949 1.86255 19.3543 1.77168 19.8181 1.77223L37.3843 1.78095C37.8481 1.78122 38.3074 1.8729 38.7358 2.05075C39.1643 2.2286 39.5534 2.48913 39.8811 2.81745C40.2088 3.14577 40.4686 3.53545 40.6456 3.96421C40.8226 4.39298 40.9134 4.85242 40.9128 5.31629L40.8962 32.4185" fill="white"/>
</g>
<path d="M18.5486 9.57158L18.4998 5.34786L21.3716 5.31465L21.3821 6.22659L19.6862 6.2462L19.6948 6.98215L21.1507 6.96531L21.1606 7.82126L19.7047 7.83809L19.714 8.64604L21.4899 8.6255L21.5004 9.53744L18.5486 9.57158ZM22.1703 7.78558L22.1607 6.95363L24.1285 6.93088L24.1381 7.76282L22.1703 7.78558ZM25.4225 9.49209L24.5658 5.28571L25.7177 5.27239L26.011 7.10912C26.0402 7.3328 26.0694 7.55381 26.0986 7.77215C26.1278 7.98516 26.157 8.20351 26.1862 8.42718L26.2182 8.42681C26.2583 8.20233 26.2984 7.98052 26.3385 7.76138C26.384 7.54217 26.4268 7.32299 26.4669 7.10385L26.8936 5.25879L27.8376 5.24788L28.2908 7.08276C28.3359 7.29558 28.3838 7.51371 28.4344 7.73714C28.4849 7.95524 28.5328 8.17603 28.5781 8.39952L28.61 8.39915C28.6341 8.17486 28.6582 7.95323 28.6824 7.73427C28.7065 7.51531 28.7306 7.29635 28.7548 7.07739L29.0055 5.23437L30.0774 5.22197L29.3582 9.44657L27.9423 9.46295L27.531 7.79559C27.4631 7.46035 27.406 7.13299 27.3596 6.81351L27.3276 6.81388C27.3028 6.96884 27.278 7.13181 27.2533 7.30277C27.2339 7.46834 27.2038 7.63403 27.163 7.79985L26.8144 9.47599L25.4225 9.49209ZM31.8768 7.37731L31.8006 7.70621L32.6246 7.69668L32.5328 7.36972C32.4771 7.16769 32.4213 6.94965 32.3652 6.71562C32.3144 6.47619 32.2585 6.25282 32.1974 6.04551L32.1654 6.04588C32.1199 6.25976 32.0718 6.48433 32.0212 6.7196C31.9759 6.9548 31.9278 7.17404 31.8768 7.37731ZM30.1885 9.43697L31.4996 5.19753L32.8995 5.18134L34.3163 9.38924L33.0843 9.40348L32.8504 8.54213L31.5944 8.55665L31.3805 9.42319L30.1885 9.43697ZM35.4615 9.37599L35.4447 7.92809L34.0687 5.16782L35.3167 5.15338L35.6625 6.00544C35.7178 6.17015 35.7729 6.32685 35.828 6.47556C35.8883 6.61887 35.9488 6.77552 36.0094 6.94549L36.0414 6.94512C36.0981 6.77379 36.155 6.61579 36.2119 6.47112C36.2689 6.32112 36.3257 6.16312 36.3825 5.99712L36.7086 5.13729L37.9245 5.12323L36.6207 7.91449L36.6374 9.36239L35.4615 9.37599ZM18.618 15.5712L18.5692 11.3475L20.1611 11.329C20.3957 11.3263 20.6145 11.3398 20.8176 11.3695C21.0259 11.3991 21.2079 11.453 21.3635 11.5312C21.5191 11.6094 21.6403 11.7173 21.7272 11.855C21.8194 11.9872 21.8667 12.1574 21.8691 12.3654C21.8702 12.456 21.8579 12.5495 21.8324 12.6458C21.8068 12.7368 21.7625 12.8253 21.6995 12.9114C21.6417 12.992 21.5679 13.0649 21.478 13.1299C21.388 13.195 21.2793 13.2442 21.1517 13.2777L21.152 13.3097C21.4567 13.3702 21.6874 13.4795 21.8439 13.6377C22.0056 13.7906 22.0882 14.0109 22.0915 14.2989C22.0941 14.5176 22.0482 14.7048 21.954 14.8606C21.8651 15.0163 21.7413 15.1457 21.5825 15.2489C21.4237 15.3521 21.2379 15.4289 21.0251 15.4793C20.8123 15.5245 20.5859 15.5484 20.3459 15.5512L18.618 15.5712ZM19.7646 13.0217L20.1966 13.0168C20.4206 13.0142 20.5774 12.9723 20.6672 12.8913C20.7568 12.8049 20.8009 12.6951 20.7993 12.5618C20.7977 12.4231 20.7459 12.325 20.6439 12.2675C20.5419 12.21 20.3896 12.1825 20.1869 12.1848L19.755 12.1898L19.7646 13.0217ZM19.784 14.7016L20.256 14.6962C20.7306 14.6907 20.9661 14.5253 20.9623 14.2C20.9588 13.896 20.7197 13.7468 20.2451 13.7522L19.7731 13.7577L19.784 14.7016ZM22.9849 15.5207L22.9361 11.297L24.112 11.2834L24.1608 15.5071L22.9849 15.5207ZM25.391 15.4929L25.3421 11.2691L26.5181 11.2555L26.5558 14.5193L28.2357 14.4999L28.2468 15.4598L25.391 15.4929ZM29.1564 15.4493L29.1075 11.2256L30.2834 11.212L30.3212 14.4758L32.0011 14.4563L32.0122 15.4163L29.1564 15.4493Z" fill="black"/>
<path d="M25.6617 28.8358C25.6613 28.9101 25.1933 28.9706 24.6142 28.9692L19.4106 28.9664C18.8327 28.9673 18.3646 28.9062 18.3636 28.8301L18.3636 27.8036C18.3643 27.7306 18.8341 27.6707 19.4114 27.6716L24.6159 27.6734C25.1946 27.674 25.662 27.7336 25.6629 27.8077L25.6617 28.8358Z" fill="#AAAAAA"/>
<path d="M22.7456 31.507C22.7476 31.5821 22.2772 31.6419 21.6998 31.641L19.493 31.7575C18.9143 31.7568 18.4469 31.6973 18.4472 31.6215L18.4475 30.5938C18.4452 30.52 18.9153 30.4614 19.493 30.4611L21.7006 30.3462C22.2797 30.3456 22.7467 30.4064 22.7456 30.4805L22.7456 31.507Z" fill="#AAAAAA"/>
<path d="M30.9567 19.0552C30.9555 19.1303 30.1131 19.2084 29.0737 19.2329L19.7222 19.451C18.6845 19.475 17.8427 19.435 17.8439 19.3619L17.8585 18.3343C17.8607 18.2597 18.7036 18.1812 19.7422 18.1569L29.09 17.9371C30.1287 17.9122 30.9707 17.953 30.9693 18.0254L30.9536 19.0525" fill="#AAAAAA"/>
<path d="M30.9379 21.6868C30.937 21.7607 30.0944 21.84 29.0546 21.8644L19.7032 22.0824C18.6652 22.1077 17.8244 22.0668 17.8254 21.9923L17.8411 20.9652C17.8424 20.8915 18.6848 20.8115 19.7234 20.7872L29.0748 20.5691C30.1132 20.544 30.9537 20.5841 30.9531 20.6582L30.9376 21.6867" fill="#AAAAAA"/>
<path d="M30.8958 24.4375C30.8947 24.5106 30.0523 24.5907 29.0121 24.6149L19.6607 24.8329C18.6232 24.8577 17.7812 24.8169 17.7824 24.7452L17.7983 23.7175C17.8 23.6434 18.642 23.5632 19.6805 23.5395L29.0319 23.3214C30.0714 23.2988 30.9122 23.3377 30.9113 23.4116L30.8956 24.4387" fill="#AAAAAA"/>
<path d="M22.1447 22.0818L22.4635 22.0445C22.4635 22.0445 22.5689 22.9646 22.4526 21.9483C22.3182 20.7676 20.737 20.8266 20.6698 20.8293C20.647 20.832 20.6249 20.8392 20.605 20.8507C20.5851 20.8621 20.5676 20.8774 20.5538 20.8957C20.54 20.9141 20.53 20.935 20.5245 20.9574C20.519 20.9797 20.5181 21.0028 20.5218 21.0255C20.5217 21.0722 20.5396 21.117 20.5717 21.1509C20.6038 21.1847 20.6477 21.2048 20.6943 21.2072C20.708 21.2072 22.0394 21.1581 22.1329 21.9855C22.2492 23.0009 22.1447 22.0818 22.1447 22.0818Z" fill="#1F2533"/>
<path d="M22.9598 24.5286C22.9598 25.0527 22.6047 25.4777 22.167 25.4777C21.7301 25.4777 21.375 25.0527 21.375 24.5286V22.4461C21.375 21.9211 21.7301 21.4961 22.167 21.4961C22.6047 21.4961 22.9598 21.9211 22.9598 22.4461V24.5286Z" fill="url(#paint0_radial)"/>
<path d="M4.39199 41.4091C4.39199 42.9295 3.70265 44.1619 2.85256 44.1619C2.00247 44.1619 1.30859 42.9295 1.30859 41.4091C1.30859 39.8888 1.99793 38.6572 2.85256 38.6572C3.70719 38.6572 4.39199 39.8888 4.39199 41.4091Z" fill="#4C5556"/>
<path d="M19.8999 36.9188C19.7676 36.3342 19.558 35.7698 19.2769 35.2404C19.0106 34.7341 18.6743 34.2678 18.2778 33.8554C17.9259 33.4845 17.5079 33.1824 17.0454 32.9645C16.9114 32.9035 16.7729 32.8528 16.6313 32.8128C16.5017 32.7759 16.3692 32.7501 16.2353 32.7356C16.1107 32.7222 15.9851 32.72 15.8602 32.7292C15.7419 32.7372 15.6248 32.757 15.5105 32.7883L14.0801 33.1715C15.4887 33.1961 17.2588 34.7464 17.9055 36.848C18.4758 38.6953 17.5322 40.7815 16.7203 41.7024C17.1044 41.5516 18.2025 41.1066 18.5875 40.9558C18.7767 40.8816 18.9525 40.777 19.108 40.6461C19.2745 40.5043 19.419 40.3384 19.5366 40.1539C19.6686 39.9459 19.7733 39.7219 19.8482 39.4873C19.9346 39.2169 19.9912 38.938 20.0171 38.6553C20.0706 38.074 20.0311 37.4877 19.8999 36.9188Z" fill="#0E0F13"/>
<path d="M17.8214 36.6626C18.5552 39.0422 17.9676 41.3363 16.5108 41.785C15.054 42.2336 13.2767 40.6697 12.5428 38.2902C11.809 35.9106 12.3957 33.6174 13.8534 33.1678C15.3111 32.7183 17.0875 34.2831 17.8214 36.6626Z" fill="#1C1C1E"/>
<path d="M2.7182 27.2125C2.75497 27.1313 2.7962 27.0522 2.84172 26.9755C2.87169 26.9265 2.90439 26.8847 2.93254 26.8384C2.9607 26.792 2.99703 26.753 3.03063 26.7139L3.09875 26.6404C3.13437 26.6043 3.17229 26.5707 3.21227 26.5396C3.23589 26.5214 3.25859 26.5014 3.2822 26.4851C3.32517 26.4565 3.37009 26.431 3.41662 26.4088C3.43933 26.397 3.46112 26.3833 3.48383 26.3743C3.55276 26.3449 3.62506 26.3241 3.69908 26.3125L-7.66362 28.1017C-7.71571 28.1107 -7.76562 28.1295 -7.81075 28.1571C-7.81376 28.1567 -7.81682 28.1567 -7.81983 28.1571C-7.83254 28.1653 -7.84344 28.1789 -7.85525 28.188C-7.88008 28.2042 -7.90375 28.2221 -7.92609 28.2416C-7.93245 28.2479 -7.93699 28.257 -7.94335 28.2633C-7.9497 28.2697 -7.95425 28.2715 -7.95879 28.277C-7.96333 28.2824 -7.97877 28.3079 -7.98967 28.3215C-8.01545 28.3541 -8.03911 28.3884 -8.06051 28.4241C-8.06686 28.435 -8.07504 28.4423 -8.08139 28.4532C-8.08775 28.4641 -8.09593 28.4877 -8.1041 28.5031C-8.11227 28.5186 -8.1259 28.5404 -8.13589 28.5622C-8.14588 28.5839 -8.15405 28.6103 -8.16313 28.6339C-8.17222 28.6575 -8.17857 28.6648 -8.18493 28.6829C-8.19129 28.7011 -8.19674 28.7138 -8.20219 28.7293L-8.21854 28.7774C-8.22338 28.7913 -8.22792 28.8059 -8.23216 28.821C-8.2367 28.8373 -8.24215 28.8546 -8.24669 28.8719C-8.25123 28.8891 -8.25486 28.8982 -8.25759 28.9127C-8.26031 28.9273 -8.26576 28.94 -8.2694 28.9545C-8.27303 28.969 -8.27575 28.9827 -8.27939 28.9972C-8.28302 29.0117 -8.28574 29.0262 -8.28938 29.0408L-8.29755 29.0789L-8.30572 29.118L-8.3139 29.157C-8.3139 29.1707 -8.31935 29.1834 -8.32116 29.197C-8.32298 29.2106 -8.3257 29.2215 -8.32843 29.2333C-8.33115 29.2451 -8.32843 29.2578 -8.33479 29.2706L-8.34024 29.3078C-8.34024 29.3078 -8.34024 29.3151 -8.34024 29.3187C-8.34024 29.326 -8.34024 29.3341 -8.34024 29.3423C-8.34024 29.3505 -8.34024 29.3659 -8.34478 29.3777L-8.35023 29.4131C-8.35023 29.425 -8.35023 29.4368 -8.35023 29.4495C-8.35023 29.4622 -8.35023 29.474 -8.35477 29.4858C-8.35931 29.4976 -8.35477 29.5085 -8.35477 29.5203C-8.35477 29.5321 -8.35477 29.5439 -8.35931 29.5548C-8.36385 29.5657 -8.35931 29.5784 -8.35931 29.5903C-8.35931 29.6021 -8.35931 29.6139 -8.35931 29.6257V29.632L2.54837 27.7538C2.59573 27.561 2.66047 27.3728 2.74182 27.1917L2.7182 27.2125Z" fill="#020200"/>
<path d="M-8.01562 27.7217L3.23445 25.9961L3.95103 26.304L-7.48977 28.1141L-8.01562 27.7217Z" fill="#183255"/>
<path d="M-6.88477 27.3841L4.69045 25.6357L4.68772 26.3659L-6.83391 28.2033L-6.88477 27.3841Z" fill="#171819"/>
<path d="M-8.07227 26.8623L3.2323 25.2266L4.24133 25.6362L-7.33298 27.3845L-8.07227 26.8623Z" fill="#183255"/>
<path d="M-2.76758 30.2912L10.1645 27.8545L10.1327 28.7636L-2.72671 31.3293L-2.76758 30.2912Z" fill="#171819"/>
<path d="M-4.26172 29.5531L8.34795 27.2998L9.71299 27.8529L-3.21818 30.2897L-4.26172 29.5531Z" fill="#183255"/>
<path d="M-1.28711 35.7144L11.872 32.4121L11.7621 34.6863L-1.21264 38.3092L-1.28711 35.7144Z" fill="#020200"/>
<path d="M13.2142 30.2795L9.68214 28.7628L8.32618 28.1806L4.70875 26.6285L-2.06291 26.8074L3.2329 25.9946L1.8842 25.416L-8.99805 26.99L-4.21629 30.5538L-3.17729 31.3285L-1.37357 32.6727L-4.14272 33.2757L-1.28638 35.7143L11.8728 32.412L9.34883 31.1605L13.2142 30.2795Z" fill="#2F3742"/>
<path d="M0.939453 35.3544C0.967608 35.3298 0.99667 35.3062 1.02573 35.2835C1.0548 35.2608 1.08477 35.239 1.11656 35.2181C1.14835 35.1973 1.1765 35.1782 1.20738 35.1591C1.23826 35.14 1.26914 35.1228 1.2982 35.1064C1.26732 35.1237 1.23554 35.141 1.20738 35.16C1.17923 35.1791 1.14653 35.1982 1.11656 35.219C1.08659 35.2399 1.05752 35.2608 1.02573 35.2835C0.993946 35.3062 0.967608 35.3298 0.939453 35.3544Z" fill="#75281C"/>
<path d="M1.27172 35.2102H1.26264C1.23357 35.2175 1.20542 35.2265 1.17727 35.2356L1.09553 35.2683C1.06828 35.2801 1.04194 35.2928 1.01561 35.3065C0.989267 35.3201 0.963837 35.3346 0.938406 35.351C0.904288 35.372 0.871248 35.3947 0.839411 35.4191C0.806715 35.4436 0.775836 35.469 0.748589 35.4972C0.721343 35.5253 0.687739 35.5544 0.657768 35.588C0.627797 35.6216 0.599641 35.6516 0.571486 35.6852L0.530615 35.7379L0.490653 35.7924L0.45251 35.8496C0.439795 35.8687 0.427079 35.8886 0.415273 35.9086L0.386209 35.9568L0.358963 36.0058L0.331715 36.0567C0.322633 36.073 0.314461 36.0903 0.305379 36.1084L0.28358 36.1538L0.261784 36.2002C0.255426 36.2156 0.248159 36.231 0.240894 36.2474C0.233628 36.2637 0.227273 36.2792 0.220915 36.2955C0.214558 36.3119 0.209107 36.3246 0.20275 36.34L0.185494 36.3845L0.168237 36.4308L0.15189 36.4772C0.146441 36.4908 0.141899 36.5053 0.137358 36.5208C0.132817 36.5362 0.127367 36.5498 0.122826 36.5643L0.108295 36.6089L0.0946719 36.6543C0.0901308 36.6688 0.0864966 36.6833 0.0819555 36.6969C0.0774144 36.7106 0.0737839 36.726 0.070151 36.7415C0.0665182 36.7569 0.0619766 36.7705 0.0583438 36.785C0.0547109 36.7996 0.0501694 36.815 0.0465365 36.8295C0.0429036 36.8441 0.0465365 36.8295 0.0465365 36.8295C0.0466246 36.8311 0.0466246 36.8326 0.0465365 36.8341C0.0459774 36.8356 0.0459774 36.8372 0.0465365 36.8386L13.5508 33.233L13.5699 33.1921L13.589 33.1522L13.608 33.1131C13.6144 33.0995 13.6217 33.0868 13.628 33.0741L13.6498 33.0323L13.6716 32.9914L13.6943 32.9515C13.7016 32.9378 13.7098 32.9251 13.717 32.9124L13.7425 32.8697L13.7688 32.8279L13.7951 32.7862C13.8042 32.7725 13.8124 32.7589 13.8215 32.7462L13.8523 32.7008L13.8841 32.6572L13.915 32.6145L13.9477 32.5718L13.9868 32.5237L14.0258 32.4774C14.0394 32.461 14.0522 32.4456 14.0658 32.4311L14.1066 32.3856L14.1602 32.3302L14.2156 32.2758L14.2719 32.224L14.3292 32.1731C14.3682 32.1404 14.4082 32.1086 14.449 32.0823C14.4899 32.056 14.5308 32.0224 14.5735 31.9915C14.6162 31.9606 14.6588 31.937 14.7024 31.9125C14.746 31.8879 14.7933 31.8634 14.8369 31.8416C14.8805 31.8198 14.9059 31.8089 14.9413 31.7944L15.0476 31.7517L15.1575 31.7145C15.1938 31.7036 15.2301 31.6927 15.2683 31.6836L1.27172 35.2102Z" fill="#020200"/>
<path d="M3.78424 41.9688L3.26656 41.9179L3.78151 42.8361L3.77062 42.8843L3.75972 42.9324C3.75972 42.9479 3.75245 42.9633 3.74882 42.9787C3.74519 42.9942 3.74155 43.0096 3.73701 43.0241L3.1385 42.2567L3.42822 43.4446C3.41943 43.4499 3.40996 43.4539 3.40006 43.4565L3.371 43.4628H3.34194H3.31197L2.91508 42.373L2.83697 43.2576L2.77884 43.204L2.76068 43.1858L2.74342 43.1676L2.72526 43.1486L2.708 43.1313L2.63625 42.1078L2.26025 42.4393C2.25117 42.4202 2.24209 42.4011 2.2321 42.382C2.22211 42.363 2.21393 42.3439 2.20576 42.3239L2.17851 42.2649C2.17034 42.2449 2.16126 42.2249 2.15308 42.204L2.42101 41.5565L1.85428 41.1932C1.85428 41.1723 1.84792 41.1523 1.84429 41.1314C1.84066 41.1105 1.83793 41.0906 1.83521 41.0706C1.83248 41.0506 1.82885 41.0297 1.82612 41.0097C1.8234 40.9897 1.81977 40.9698 1.81704 40.9498L2.28023 40.9916L1.8125 40.1642C1.8125 40.1478 1.81704 40.1315 1.81886 40.1151C1.82067 40.0988 1.82431 40.0833 1.82703 40.0688C1.82976 40.0543 1.83248 40.0388 1.83611 40.0234C1.83975 40.008 1.84338 39.9952 1.84792 39.9807L2.42736 40.6946L2.13946 39.5021C2.14743 39.4967 2.15596 39.4921 2.16489 39.4885C2.17364 39.4841 2.18276 39.4804 2.19213 39.4776L2.21938 39.4694L2.24845 39.4648L2.62445 40.5038L2.69256 39.6065L2.75614 39.6583L2.77249 39.6728L2.78883 39.6874L2.80518 39.7028L2.82244 39.7191L2.90418 40.809L3.32014 40.4457L3.35011 40.5066L3.38008 40.5683C3.38917 40.5901 3.39916 40.611 3.40824 40.6328C3.41732 40.6546 3.42731 40.6764 3.43639 40.6982L3.14213 41.3476L3.74065 41.7109C3.74065 41.7327 3.74791 41.7554 3.75245 41.7772C3.75699 41.799 3.75972 41.8217 3.76244 41.8435C3.76517 41.8653 3.76971 41.888 3.77243 41.9107C3.77516 41.9334 3.78151 41.9461 3.78424 41.9688ZM2.77521 41.9461C2.80482 41.9769 2.84215 41.9991 2.88329 42.0106C2.89908 42.0142 2.91549 42.0141 2.93125 42.0103C2.947 42.0065 2.96167 41.9991 2.97411 41.9888C3.00371 41.9615 3.02457 41.9261 3.03405 41.8871C3.05041 41.8307 3.05776 41.7722 3.05585 41.7136C3.05525 41.6419 3.04764 41.5704 3.03314 41.5002C3.01853 41.4271 2.99787 41.3554 2.97139 41.2858C2.9468 41.2203 2.9164 41.157 2.88056 41.0969C2.85067 41.0456 2.81367 40.9989 2.77067 40.958C2.74058 40.9276 2.70245 40.9065 2.66077 40.8971C2.64478 40.8937 2.62819 40.8941 2.61239 40.8983C2.59659 40.9026 2.58204 40.9106 2.56995 40.9216C2.54084 40.9487 2.52032 40.9838 2.51092 41.0224C2.49581 41.078 2.48907 41.1356 2.49094 41.1932C2.4915 41.2643 2.4991 41.3352 2.51364 41.4048C2.52838 41.4768 2.54873 41.5476 2.5745 41.6164C2.59906 41.6817 2.62946 41.7446 2.66532 41.8044C2.69498 41.8567 2.73199 41.9044 2.77521 41.9461Z" fill="#A8B1B2"/>
<path d="M2.74444 36.9121C3.15186 37.2503 3.50235 37.6517 3.78253 38.101C4.13736 38.6551 4.43612 39.2432 4.6744 39.8565C4.93877 40.5259 5.1445 41.2169 5.28926 41.9218C5.43138 42.6013 5.50169 43.2938 5.49906 43.988C5.49179 44.6383 5.40188 45.1741 5.24839 45.5837C5.0949 45.9933 4.8851 46.2649 4.62899 46.4129C4.49869 46.485 4.35392 46.5271 4.20526 46.5361C4.05661 46.545 3.90783 46.5206 3.76981 46.4647C3.46102 46.3548 3.12771 46.1205 2.78622 45.7581C2.42531 45.3611 2.11366 44.922 1.85802 44.4503C1.57057 43.9299 1.32577 43.3872 1.126 42.8273C0.919232 42.251 0.75501 41.6603 0.634657 41.0599C0.516634 40.4787 0.449775 39.8882 0.434849 39.2953C0.418286 38.7996 0.465908 38.3038 0.57653 37.8203C0.679158 37.4062 0.835373 37.0801 1.03518 36.8567C1.12529 36.7484 1.23799 36.6612 1.36539 36.6011C1.49279 36.541 1.63179 36.5095 1.77265 36.5089C2.06328 36.5052 2.39115 36.6396 2.74444 36.9121ZM2.77714 43.4512C2.89912 43.5839 3.05337 43.6828 3.22488 43.7382C3.28824 43.7572 3.3551 43.7613 3.42029 43.7503C3.48549 43.7392 3.54728 43.7134 3.60089 43.6747C3.72782 43.5727 3.81909 43.4331 3.86154 43.276C3.93177 43.0447 3.96517 42.8038 3.96054 42.5621C3.95848 42.2584 3.92623 41.9557 3.86427 41.6584C3.80197 41.3508 3.71418 41.0488 3.60179 40.7557C3.49804 40.4827 3.36913 40.22 3.21671 39.971C3.09213 39.7625 2.93725 39.5736 2.75715 39.4106C2.63411 39.2925 2.47845 39.214 2.31031 39.1854C2.24615 39.1784 2.18122 39.1859 2.12037 39.2075C2.05952 39.229 2.00431 39.264 1.95883 39.3098C1.84698 39.4297 1.76867 39.5769 1.73178 39.7367C1.67468 39.9627 1.64931 40.1956 1.6564 40.4287C1.66048 40.7107 1.69088 40.9916 1.74722 41.2679C1.80488 41.5536 1.88443 41.8345 1.98517 42.108C2.08025 42.3703 2.19816 42.6238 2.33756 42.8654C2.45694 43.079 2.60381 43.2759 2.77441 43.4512H2.77714Z" fill="#1C1C1E"/>
<path d="M1.85986 39.4453C1.83511 39.4578 1.81168 39.4727 1.78993 39.4898C1.67776 39.6095 1.5994 39.7568 1.56287 39.9167C1.50577 40.1424 1.4804 40.3751 1.48749 40.6078C1.49152 40.8898 1.52193 41.1707 1.57831 41.447C1.63597 41.7327 1.71552 42.0136 1.81626 42.2871C1.91142 42.5495 2.02902 42.8033 2.16774 43.0455C2.28847 43.2586 2.43588 43.4555 2.60642 43.6313C2.72851 43.7636 2.88275 43.8622 3.05417 43.9174C3.11745 43.9364 3.18427 43.9407 3.24947 43.9298C3.31466 43.9189 3.37648 43.8932 3.43017 43.8547C3.49322 43.8067 3.54628 43.7468 3.58638 43.6785C3.53379 43.7142 3.47395 43.7379 3.41114 43.7478C3.34834 43.7577 3.28413 43.7535 3.2231 43.7357C3.0521 43.6807 2.8982 43.5824 2.77625 43.4505C2.60533 43.2753 2.45815 43.0783 2.33849 42.8647C2.19909 42.6231 2.08118 42.3696 1.9861 42.1073C1.88535 41.8338 1.8058 41.5529 1.74815 41.2672C1.69181 40.9909 1.66141 40.7099 1.65733 40.428C1.65024 40.1949 1.67561 39.962 1.73271 39.7359C1.76069 39.6334 1.80353 39.5355 1.85986 39.4453Z" fill="#ABABB2"/>
<path d="M5.28877 41.9196C5.14401 41.2147 4.93828 40.5236 4.67391 39.8543C4.43563 39.241 4.13687 38.6529 3.78204 38.0987C3.50178 37.6498 3.1513 37.2487 2.74395 36.9108C2.39065 36.6383 2.06279 36.5048 1.77216 36.5039C1.6313 36.5046 1.4923 36.5361 1.3649 36.5962C1.2375 36.6562 1.1248 36.7435 1.03469 36.8518C1.0138 36.8754 0.995635 36.9035 0.976562 36.929C1.14756 36.7734 1.37026 36.687 1.60141 36.6865C1.89204 36.6865 2.21991 36.8163 2.57321 37.0924C2.98062 37.431 3.33111 37.8327 3.61129 38.2822C3.96481 38.8362 4.26235 39.424 4.49953 40.0369C4.76402 40.7061 4.96975 41.3972 5.11439 42.1022C5.25703 42.7819 5.32826 43.4747 5.32691 44.1693C5.31874 44.8195 5.22973 45.3545 5.07534 45.7641C5.00729 45.9533 4.91116 46.1312 4.79016 46.2918C4.99735 46.0961 5.15329 45.8525 5.24426 45.5824C5.40774 45.1756 5.49856 44.637 5.49856 43.9867C5.50127 43.2922 5.43095 42.5994 5.28877 41.9196Z" fill="#ABABB2"/>
<path d="M5.21302 45.6804C5.13818 45.8669 5.03291 46.0397 4.9015 46.1917C4.8054 46.2992 4.68824 46.3858 4.55729 46.446L4.64811 46.4197L7.48265 45.3089C7.60924 45.1462 7.70918 44.9644 7.77873 44.7704C7.93221 44.3608 8.02213 43.8249 8.0303 43.1746C8.03179 42.48 7.96025 41.7872 7.81687 41.1075C7.67284 40.4025 7.46741 39.7115 7.20292 39.0423C6.96464 38.4289 6.66588 37.8408 6.31105 37.2867C6.03028 36.8362 5.67885 36.4339 5.27024 36.0951C5.0602 35.9217 4.8156 35.795 4.55275 35.7236L1.5293 36.5338C1.61803 36.5097 1.7099 36.4993 1.80176 36.5029C1.90122 36.5061 1.99984 36.5223 2.09512 36.551C2.2052 36.5842 2.31145 36.6289 2.41208 36.6845C2.53017 36.7503 2.64284 36.8253 2.74903 36.9089C3.15645 37.247 3.50694 37.6484 3.78712 38.0977C4.14195 38.6518 4.44071 39.2399 4.67899 39.8533C4.94336 40.5226 5.14909 41.2136 5.29385 41.9186C5.435 42.5994 5.5041 43.2931 5.50001 43.9884C5.4979 44.3082 5.47057 44.6274 5.41828 44.9429C5.37784 45.1957 5.30898 45.4431 5.21302 45.6804Z" fill="#0E0F13"/>
<path d="M2.13871 35.2873C2.06385 35.2581 1.98708 35.2342 1.90893 35.2155C1.83584 35.1977 1.76142 35.1859 1.68642 35.1801C1.6151 35.1742 1.54341 35.1742 1.47208 35.1801C1.40308 35.1855 1.3347 35.1971 1.26773 35.2146C1.23867 35.2219 1.21052 35.231 1.18236 35.24L1.10062 35.2727C1.07338 35.2845 1.04704 35.2973 1.0207 35.3109C0.994361 35.3245 0.96893 35.339 0.943501 35.3554C0.836441 35.4228 0.738726 35.504 0.652873 35.597C0.559174 35.6995 0.476385 35.8115 0.405838 35.9312C0.326355 36.0648 0.258298 36.2048 0.202395 36.3499C0.13927 36.5125 0.0867877 36.6791 0.0452762 36.8485L-1.28163 35.7159L-4.1416 33.2792L-5.55842 32.0704C-5.63289 31.6898 -5.72281 31.3184 -5.82362 30.9642C-5.92443 30.61 -6.03614 30.2775 -6.15602 29.9651C-6.26375 29.6819 -6.38933 29.4059 -6.53203 29.1386C-6.64459 28.9224 -6.77846 28.718 -6.93164 28.5283L-4.2188 30.5546L-3.17889 31.3293L-0.418824 33.3873L2.13871 35.2873Z" fill="#3F4754"/>
<path d="M-0.417969 33.3864L13.2125 30.2803L16.3849 31.6417L2.1314 35.2873L-0.417969 33.3864Z" fill="#183255"/>
<path d="M3.80428 32.1788L18.7317 28.8184L18.4066 32.5938L3.79883 36.6245L3.80428 32.1788Z" fill="#7B2A1D"/>
<path d="M5.60352 40.3633C5.60539 40.371 5.60782 40.3786 5.61078 40.386C5.61078 40.3933 5.61078 40.4014 5.61804 40.4087C5.62531 40.416 5.62259 40.4232 5.62531 40.4314C5.62732 40.4388 5.62975 40.4461 5.63258 40.4532C5.62975 40.4461 5.62732 40.4388 5.62531 40.4314C5.62531 40.4232 5.61986 40.416 5.61804 40.4087C5.61623 40.4014 5.6135 40.3933 5.61078 40.386C5.60782 40.3786 5.60539 40.371 5.60352 40.3633Z" fill="#162D4D"/>
<path d="M5.65528 40.5192C5.65568 40.5216 5.65568 40.5241 5.65528 40.5265V40.5328C5.65487 40.5352 5.65487 40.5377 5.65528 40.5401C5.65567 40.5422 5.65567 40.5444 5.65528 40.5465C5.65528 40.5392 5.65073 40.531 5.64801 40.5229C5.64529 40.5147 5.64801 40.5065 5.64075 40.4983L5.63257 40.4747C5.63257 40.4665 5.62803 40.4584 5.6253 40.4502C5.6249 40.4526 5.6249 40.4551 5.6253 40.4575V40.4647C5.6253 40.4647 5.6253 40.4693 5.6253 40.4711V40.4783V40.4883C5.6253 40.4883 5.6253 40.4956 5.6253 40.4983V40.5092C5.629 40.5134 5.6337 40.5165 5.63896 40.5182C5.64422 40.52 5.64984 40.5203 5.65528 40.5192Z" fill="#162D4D"/>
<path d="M5.80532 41.0282C5.80532 41.0282 5.80532 41.0328 5.80532 41.0355C5.80571 41.0376 5.80571 41.0397 5.80532 41.0418C5.80562 41.044 5.80562 41.0461 5.80532 41.0482C5.80573 41.0506 5.80573 41.0531 5.80532 41.0555C5.80532 41.0509 5.80532 41.0464 5.80532 41.0418C5.80532 41.0373 5.80532 41.0328 5.80532 41.0282C5.80491 41.0237 5.80491 41.0191 5.80532 41.0146C5.80532 41.0146 5.80532 41.0055 5.80078 41.001V41.0055C5.80078 41.0055 5.80078 41.0055 5.80078 41.0101V41.0219L5.80532 41.0282Z" fill="#162D4D"/>
<path d="M2.20938 13.5732L-9.42578 13.7967L-0.972104 14.9256L13.0871 14.209L2.20938 13.5732Z" fill="url(#paint1_linear)"/>
<path d="M13.0877 14.207L-0.970624 14.9263L-1.02148 31.9427C3.53686 31.0018 13.075 28.6477 13.075 28.6477L13.0877 14.207Z" fill="url(#paint2_linear)"/>
<g opacity="0.2">
<path opacity="0.2" d="M8.83008 29.6807L8.92998 29.6571V14.4209L8.83008 14.4263V29.6807Z" fill="url(#paint3_linear)"/>
<path opacity="0.2" d="M8.56055 29.7463L8.66043 29.7217V14.4355H8.56055V29.7463Z" fill="url(#paint4_linear)"/>
<path opacity="0.2" d="M8.28711 29.8117L8.38701 29.7872V14.4492L8.28711 14.4547V29.8117Z" fill="url(#paint5_linear)"/>
<path opacity="0.2" d="M8.01562 29.8753L8.11553 29.8516V14.4619L8.01562 14.4674V29.8753Z" fill="url(#paint6_linear)"/>
<path opacity="0.2" d="M9.10352 29.6153L9.20251 29.5917V14.4072L9.10352 14.4127V29.6153Z" fill="url(#paint7_linear)"/>
<path opacity="0.2" d="M9.375 29.5499L9.47491 29.5263V14.3936L9.375 14.399V29.5499Z" fill="url(#paint8_linear)"/>
<path opacity="0.2" d="M6.92969 30.1363L7.0305 30.1117V14.5186L6.92969 14.524V30.1363Z" fill="url(#paint9_linear)"/>
<path opacity="0.2" d="M6.38477 30.2635L6.48467 30.2399V14.5459L6.38477 14.5513V30.2635Z" fill="url(#paint10_linear)"/>
<path opacity="0.2" d="M6.65625 30.2008L6.75615 30.1763V14.5332H6.65625V30.2008Z" fill="url(#paint11_linear)"/>
<path opacity="0.2" d="M7.47266 30.0099L7.57256 29.9863V14.4912H7.47266V30.0099Z" fill="url(#paint12_linear)"/>
<path opacity="0.2" d="M7.19922 30.0698L7.29912 30.0462V14.5039L7.19922 14.5094V30.0698Z" fill="url(#paint13_linear)"/>
<path opacity="0.2" d="M7.74609 29.9419L7.846 29.9183V14.4795L7.74609 14.484V29.9419Z" fill="url(#paint14_linear)"/>
<path opacity="0.2" d="M9.64453 29.4847L9.74445 29.4602V14.3838L9.64453 14.3883V29.4847Z" fill="url(#paint15_linear)"/>
<path opacity="0.2" d="M12.0898 28.8909L12.1897 28.8663V14.2559L12.0898 14.2604V28.8909Z" fill="url(#paint16_linear)"/>
<path opacity="0.2" d="M12.3633 28.83L12.4632 28.8054V14.2422L12.3633 14.2476V28.83Z" fill="url(#paint17_linear)"/>
<path opacity="0.2" d="M11.5488 29.0238L11.6478 28.9992V14.2861L11.5488 14.2916V29.0238Z" fill="url(#paint18_linear)"/>
<path opacity="0.2" d="M11.8184 28.9562L11.9183 28.9317V14.2686L11.8184 14.2731V28.9562Z" fill="url(#paint19_linear)"/>
<path opacity="0.2" d="M12.6348 28.7571L12.7347 28.7326V14.2266L12.6348 14.232V28.7571Z" fill="url(#paint20_linear)"/>
<path opacity="0.2" d="M12.9062 28.6908L13.0061 28.6663V14.2139L12.9062 14.2184V28.6908Z" fill="url(#paint21_linear)"/>
<path opacity="0.2" d="M10.4609 29.2881L10.5608 29.2636V14.3389L10.4609 14.3443V29.2881Z" fill="url(#paint22_linear)"/>
<path opacity="0.2" d="M9.91797 29.419L10.0179 29.3945V14.3662L9.91797 14.3708V29.419Z" fill="url(#paint23_linear)"/>
<path opacity="0.2" d="M10.1914 29.3535L10.2913 29.3299V14.3525L10.1914 14.358V29.3535Z" fill="url(#paint24_linear)"/>
<path opacity="0.2" d="M11.0039 29.1553L11.1038 29.1308V14.3105L11.0039 14.3151V29.1553Z" fill="url(#paint25_linear)"/>
<path opacity="0.2" d="M11.2754 29.09L11.3753 29.0654V14.2979L11.2754 14.3033V29.09Z" fill="url(#paint26_linear)"/>
<path opacity="0.2" d="M10.7324 29.2208L10.8323 29.1972V14.3242L10.7324 14.3288V29.2208Z" fill="url(#paint27_linear)"/>
<path opacity="0.2" d="M6.11523 30.329L6.21514 30.3054V14.5605L6.11523 14.566V30.329Z" fill="url(#paint28_linear)"/>
<path opacity="0.2" d="M1.22461 31.4581L1.3236 31.4363V14.8105H1.22461V31.4581Z" fill="url(#paint29_linear)"/>
<path opacity="0.2" d="M0.679552 31.5781L0.77763 31.5535V14.8369L0.677734 14.8424L0.679552 31.5781Z" fill="url(#paint30_linear)"/>
<path opacity="0.2" d="M0.951172 31.5181L1.05108 31.4954V14.8232L0.951172 14.8287V31.5181Z" fill="url(#paint31_linear)"/>
<path opacity="0.2" d="M1.49609 31.3962L1.596 31.3717V14.7949L1.49609 14.8004V31.3962Z" fill="url(#paint32_linear)"/>
<path opacity="0.2" d="M2.03906 31.2745L2.13897 31.2527V14.7686L2.03906 14.774V31.2745Z" fill="url(#paint33_linear)"/>
<path opacity="0.2" d="M2.3125 31.2125L2.41513 31.1907V14.752H2.31522L2.3125 31.2125Z" fill="url(#paint34_linear)"/>
<path opacity="0.2" d="M1.76562 31.3364L1.86553 31.3137V14.7842L1.76562 14.7896V31.3364Z" fill="url(#paint35_linear)"/>
<path opacity="0.2" d="M2.85352 31.089L2.95433 31.0663V14.7266L2.85352 14.732V31.089Z" fill="url(#paint36_linear)"/>
<path opacity="0.2" d="M4.75781 30.6453L4.85772 30.6217V14.6289L4.75781 14.6344V30.6453Z" fill="url(#paint37_linear)"/>
<path opacity="0.2" d="M4.48438 30.7116L4.58428 30.688V14.6426L4.48438 14.648V30.7116Z" fill="url(#paint38_linear)"/>
<path opacity="0.2" d="M2.58203 31.1498L2.68194 31.1271V14.7393L2.58203 14.7447V31.1498Z" fill="url(#paint39_linear)"/>
<path opacity="0.2" d="M4.21094 30.7756L4.31084 30.752V14.6611H4.21094V30.7756Z" fill="url(#paint40_linear)"/>
<path opacity="0.2" d="M5.57031 30.4562L5.67022 30.4326V14.5879H5.57031V30.4562Z" fill="url(#paint41_linear)"/>
<path opacity="0.2" d="M5.30078 30.5209L5.40069 30.4973V14.6035L5.30078 14.609V30.5209Z" fill="url(#paint42_linear)"/>
<path opacity="0.2" d="M5.02734 30.5844L5.12725 30.5608V14.6152L5.02734 14.6207V30.5844Z" fill="url(#paint43_linear)"/>
<path opacity="0.2" d="M3.94141 30.8381L4.04131 30.8144V14.6709L3.94141 14.6763V30.8381Z" fill="url(#paint44_linear)"/>
<path opacity="0.2" d="M3.12695 31.0253L3.22686 31.0026V14.7119H3.12695V31.0253Z" fill="url(#paint45_linear)"/>
<path opacity="0.2" d="M5.8418 30.3923L5.9417 30.3686V14.5693L5.8418 14.5748V30.3923Z" fill="url(#paint46_linear)"/>
<path opacity="0.2" d="M3.66992 30.9008L3.76983 30.8781V14.6846L3.66992 14.69V30.9008Z" fill="url(#paint47_linear)"/>
<path opacity="0.2" d="M3.39648 30.9636L3.49639 30.9409V14.6992H3.39648V30.9636Z" fill="url(#paint48_linear)"/>
</g>
<path opacity="0.7" d="M13.0854 14.209L-0.973807 14.9356L-1.04102 14.9192L13.0854 14.209Z" fill="#FFEEB8"/>
<g opacity="0.5">
<path opacity="0.5" d="M6.69004 13.835L6.49023 13.8232L11.2938 14.301L11.3238 14.2991L6.69004 13.835Z" fill="url(#paint49_linear)"/>
<path opacity="0.5" d="M4.88744 13.7304L4.65039 13.7168L10.7364 14.3298L10.7709 14.328L4.88744 13.7304Z" fill="url(#paint50_linear)"/>
<path opacity="0.5" d="M9.13841 13.9792L8.4082 13.9365L11.8485 14.2726L12.052 14.2626L9.13841 13.9792Z" fill="url(#paint51_linear)"/>
<path opacity="0.5" d="M12.5488 14.1774L12.4707 14.1729L12.933 14.2164H12.9502L12.5488 14.1774Z" fill="url(#paint52_linear)"/>
<path opacity="0.5" d="M10.521 14.06L10.3984 14.0527L12.3929 14.2453L12.4147 14.2444L10.521 14.06Z" fill="url(#paint53_linear)"/>
<path opacity="0.5" d="M7.87599 14.4734L0.0326283 13.6143L-0.0917969 13.617L7.81786 14.4771L7.87599 14.4734Z" fill="url(#paint54_linear)"/>
<path opacity="0.5" d="M0.786918 13.6006L0.550781 13.6051L8.41685 14.447L8.63573 14.4361L0.786918 13.6006Z" fill="url(#paint55_linear)"/>
<path opacity="0.5" d="M3.13643 13.6268L2.87305 13.6123L10.1669 14.358L10.206 14.3561L3.13643 13.6268Z" fill="url(#paint56_linear)"/>
<path opacity="0.5" d="M7.27582 14.5062L-0.607499 13.6289L-0.738281 13.6307L7.21224 14.5099L7.27582 14.5062Z" fill="url(#paint57_linear)"/>
<path opacity="0.5" d="M1.30207 13.5908L1.18945 13.5935L9.00918 14.4173L9.05731 14.4146L1.30207 13.5908Z" fill="url(#paint58_linear)"/>
<path opacity="0.5" d="M1.92748 13.5791L1.82031 13.5809L9.591 14.3874L9.63459 14.3856L1.92748 13.5791Z" fill="url(#paint59_linear)"/>
<path opacity="0.5" d="M-1.90833 13.6533L-2.05273 13.656L5.97045 14.5724L6.04401 14.5688L-1.90833 13.6533Z" fill="url(#paint60_linear)"/>
<path opacity="0.5" d="M-3.14073 13.6758L-3.38867 13.6812L4.69263 14.6367L4.93058 14.6249L-3.14073 13.6758Z" fill="url(#paint61_linear)"/>
<path opacity="0.5" d="M-2.56512 13.665L-2.7168 13.6678L5.33727 14.6041L5.41719 14.6005L-2.56512 13.665Z" fill="url(#paint62_linear)"/>
<path opacity="0.5" d="M-3.90007 13.6904L-4.06445 13.6941L4.04138 14.6704L4.1322 14.6659L-3.90007 13.6904Z" fill="url(#paint63_linear)"/>
<path opacity="0.5" d="M-1.25544 13.6406L-1.39258 13.6433L6.59519 14.5407L6.66331 14.5379L-1.25544 13.6406Z" fill="url(#paint64_linear)"/>
<path opacity="0.5" d="M-6.62882 13.7432L-6.82227 13.7468L1.34351 14.8076L1.45976 14.8021L-6.62882 13.7432Z" fill="url(#paint65_linear)"/>
<path opacity="0.5" d="M-7.32872 13.7578L-7.53125 13.7614L0.639973 14.8449L0.76349 14.8386L-7.32872 13.7578Z" fill="url(#paint66_linear)"/>
<path opacity="0.5" d="M-4.57249 13.7051L-4.74414 13.7078L3.38258 14.705L3.47976 14.6996L-4.57249 13.7051Z" fill="url(#paint67_linear)"/>
<path opacity="0.5" d="M-5.25181 13.7178L-5.43164 13.7214L2.71234 14.7386L2.81588 14.7341L-5.25181 13.7178Z" fill="url(#paint68_linear)"/>
<path opacity="0.5" d="M-5.93986 13.7305L-6.12695 13.7341L2.02973 14.7731L2.14053 14.7667L-5.93986 13.7305Z" fill="url(#paint69_linear)"/>
</g>
<path d="M-6.13919 16.1015L-6.0075 16.2614L-5.90305 16.1606L-5.77136 16.3204L-5.66692 16.2196L-5.53522 16.3794L-5.43078 16.2786L-5.29909 16.4385L-5.19464 16.3377L-5.13924 16.404L-5.1901 14.3532L7.16438 13.8701L5.64584 13.7783L-6.21094 14.2106L-6.15644 16.1188L-6.13919 16.1015Z" fill="url(#paint70_linear)"/>
<path d="M18.7303 28.8184L15.8394 27.8103L16.4579 18.8789L1.3125 20.1731L1.44237 30.7348L3.80283 32.1788L6.15874 33.6193L21.5448 29.7993L18.7303 28.8184Z" fill="url(#paint71_linear)"/>
<path d="M6.15904 33.6212L19.0666 30.4161L18.8759 28.8721L18.7306 28.8213L15.8406 27.8123L16.1058 23.9696C15.9429 23.9589 15.7793 23.9632 15.6172 23.9823L3.80403 25.44C3.46063 25.482 3.12887 25.5913 2.82771 25.7616C2.52656 25.9319 2.2619 26.1598 2.04885 26.4324C1.83581 26.705 1.67856 27.0169 1.58608 27.3503C1.4936 27.6836 1.4677 28.032 1.50987 28.3753L1.82957 30.9692L3.80312 32.1762L6.15904 33.6212Z" fill="url(#paint72_linear)"/>
<path d="M6.16016 33.6198L21.5462 29.7998L21.7515 29.8716L6.33362 33.7269L6.16016 33.6198Z" fill="#822C1F"/>
<path d="M-0.417969 18.0367L13.9373 17.1494L20.4165 17.8905L4.42737 19.1102L-0.417969 18.0367Z" fill="url(#paint73_linear)"/>
<path d="M7.22568 18.3744C7.29198 18.666 6.95321 18.7477 6.47186 18.7477C5.98596 18.7477 5.65447 18.666 5.71895 18.3744C5.75437 18.1864 5.7907 17.9984 5.82612 17.8104C5.86482 17.6696 5.94929 17.5457 6.06621 17.4582C6.18314 17.3707 6.32585 17.3247 6.47186 17.3273C6.61775 17.3247 6.76033 17.3708 6.8771 17.4583C6.99386 17.5458 7.07816 17.6697 7.11669 17.8104C7.15302 17.9984 7.18844 18.1864 7.22568 18.3744Z" fill="#F59354"/>
<path d="M17.6695 17.5151C17.7322 17.7875 17.4225 17.8602 16.9729 17.8602C16.5234 17.8602 16.2137 17.7848 16.2754 17.5151C16.309 17.3407 16.3417 17.1663 16.3753 16.9919C16.4112 16.8618 16.4895 16.7473 16.5977 16.6665C16.7059 16.5858 16.8379 16.5434 16.9729 16.546C17.1079 16.5434 17.24 16.5858 17.3482 16.6665C17.4564 16.7473 17.5346 16.8618 17.5705 16.9919C17.6032 17.1663 17.6368 17.3407 17.6695 17.5151Z" fill="#F59354"/>
<path d="M6.47266 17.6006C6.47266 17.6006 6.91949 17.6587 6.96127 17.8603C7.00305 18.062 7.06662 18.3317 6.96127 18.4262C6.87045 18.5079 6.47266 18.5424 6.47266 18.5424V17.6006Z" fill="#FCCCB1"/>
<path d="M17.0215 16.8398C17.0215 16.8398 17.4165 16.8907 17.4529 17.0687C17.4892 17.2467 17.5437 17.4856 17.4529 17.5691C17.3621 17.6527 17.0215 17.6718 17.0215 17.6718V16.8398Z" fill="#FCCCB1"/>
<path d="M22.6467 31.0607C22.6366 30.9976 22.623 30.9352 22.6058 30.8736C22.5888 30.812 22.5685 30.7514 22.545 30.692L21.3189 19.3202C21.3357 19.1464 21.3247 18.971 21.2862 18.8007C21.2514 18.6437 21.19 18.4938 21.1045 18.3575C21.027 18.2322 20.9251 18.1238 20.8048 18.0387C20.6904 17.9584 20.5577 17.9078 20.4188 17.8916L4.42969 19.1104C4.55502 19.1409 4.66849 19.208 4.75574 19.303C4.86841 19.4199 4.96052 19.555 5.0282 19.7026C5.10968 19.8766 5.17064 20.0594 5.20985 20.2475C5.25309 20.4566 5.2741 20.6697 5.27251 20.8833L6.89549 33.5819L6.33694 33.7218C6.41549 33.7713 6.4875 33.8305 6.55128 33.898C6.62376 33.9742 6.68912 34.0569 6.74655 34.145C6.80974 34.2425 6.86618 34.3441 6.91548 34.4493C6.96745 34.5608 7.01234 34.6754 7.04989 34.7926C7.0735 34.8671 7.0953 34.9424 7.11347 35.0187C7.13163 35.095 7.14707 35.1722 7.15888 35.2494C7.17068 35.3266 7.17976 35.4038 7.18612 35.481C7.19248 35.5582 7.19339 35.6345 7.19157 35.7099L7.1171 39.0004L22.3515 34.2004L22.6549 31.4404C22.6621 31.3774 22.6649 31.3139 22.663 31.2505C22.6612 31.187 22.6557 31.1236 22.6467 31.0607Z" fill="url(#paint74_linear)"/>
<path d="M8.13326 33.7913C7.98304 33.7912 7.83817 33.7355 7.72663 33.6349C7.6151 33.5342 7.54479 33.3958 7.5293 33.2464L6.11339 22.1662C6.10146 22.0784 6.10746 21.9891 6.13103 21.9037C6.1546 21.8183 6.19526 21.7386 6.25053 21.6694C6.30598 21.6002 6.37475 21.5429 6.45274 21.5008C6.53074 21.4587 6.6164 21.4326 6.70464 21.4242L20.1217 20.1182C20.289 20.1181 20.4504 20.18 20.5748 20.2918C20.6993 20.4037 20.7779 20.5576 20.7956 20.7239L21.7447 29.5554C21.7607 29.7326 21.7143 29.9099 21.6135 30.0565C21.5126 30.2031 21.3637 30.3099 21.1925 30.3583L8.29583 33.7741C8.24255 33.7864 8.18795 33.7922 8.13326 33.7913ZM20.1217 20.5641L6.74642 21.8728C6.71811 21.8751 6.69058 21.8832 6.66552 21.8966C6.64046 21.9099 6.6184 21.9283 6.6007 21.9505C6.583 21.9727 6.57004 21.9983 6.56261 22.0257C6.55518 22.0531 6.55344 22.0818 6.55751 22.1099L7.97342 33.1901C7.97492 33.2146 7.98204 33.2385 7.99424 33.2598C8.00644 33.2811 8.02339 33.2993 8.04377 33.313C8.06415 33.3267 8.08741 33.3355 8.11175 33.3388C8.13609 33.342 8.16086 33.3396 8.18412 33.3318L21.0808 29.9169C21.148 29.8956 21.2062 29.8525 21.2461 29.7945C21.2861 29.7364 21.3056 29.6667 21.3015 29.5963L20.3497 20.7694C20.3434 20.7131 20.3168 20.6612 20.2748 20.6233C20.2327 20.5855 20.1783 20.5644 20.1217 20.5641Z" fill="black"/>
<path d="M21.5231 29.574L20.5713 20.7452C20.5585 20.6264 20.4993 20.5174 20.4067 20.4419C20.314 20.3664 20.1953 20.3305 20.0763 20.3419L6.72647 21.6534C6.66822 21.6585 6.61161 21.6754 6.56008 21.703C6.50854 21.7307 6.46315 21.7685 6.42664 21.8141C6.39013 21.8598 6.36327 21.9124 6.34768 21.9688C6.33209 22.0251 6.32809 22.0841 6.33594 22.142L7.75184 33.2223C7.75763 33.2785 7.77575 33.3328 7.80493 33.3812C7.83411 33.4296 7.87361 33.471 7.92063 33.5024C7.96765 33.5338 8.02102 33.5545 8.07693 33.5629C8.13285 33.5713 8.18993 33.5672 8.2441 33.551L21.1408 30.1361C21.2588 30.0996 21.3609 30.0241 21.4304 29.922C21.4998 29.8198 21.5325 29.6971 21.5231 29.574Z" fill="url(#paint75_radial)"/>
<path d="M21.521 29.574L20.5692 20.7452C20.5564 20.6264 20.4972 20.5174 20.4046 20.4419C20.3119 20.3664 20.1932 20.3305 20.0742 20.3419L17.8945 20.5545L17.9935 27.8102L20.1024 28.9791L21.5047 29.7547C21.5207 29.6959 21.5263 29.6347 21.521 29.574Z" fill="#D7E1E2"/>
<path d="M7.75064 33.2212C7.75617 33.2777 7.77412 33.3321 7.80319 33.3808C7.83226 33.4294 7.87174 33.4711 7.91879 33.5027C7.96584 33.5342 8.01929 33.555 8.07533 33.5635C8.13136 33.5721 8.18858 33.5681 8.24289 33.5518L21.1396 30.1369C21.2583 30.1011 21.3612 30.0259 21.4314 29.9237C21.5015 29.8215 21.5348 29.6984 21.5256 29.5748L21.412 28.5566L7.56445 31.7627L7.75064 33.2212Z" fill="url(#paint76_linear)"/>
<path d="M7.18017 35.4858C7.17351 35.4083 7.16443 35.3311 7.15292 35.2542C7.14112 35.177 7.12568 35.0998 7.10751 35.0235C7.08935 34.9472 7.06755 34.8718 7.04394 34.7973L5.26656 20.888C5.26814 20.6745 5.24714 20.4614 5.20389 20.2522C5.16468 20.0642 5.10372 19.8813 5.02225 19.7073C4.95457 19.5597 4.86245 19.4246 4.74978 19.3077C4.66253 19.2127 4.54907 19.1457 4.42373 19.1152L-0.417969 18.0371V33.386L2.13684 35.2869C2.18498 35.3059 2.23312 35.3268 2.28216 35.3504C2.3312 35.3741 2.38115 35.4004 2.4311 35.4285C2.48106 35.4567 2.53283 35.4885 2.58369 35.5194C2.63455 35.5502 2.68813 35.5893 2.74081 35.6284L2.89611 35.7482C2.95242 35.7936 3.01327 35.8445 3.07775 35.8999C3.14224 35.9553 3.21217 36.0189 3.28483 36.087C3.35749 36.1551 3.43378 36.2296 3.51188 36.3104C3.5355 36.334 3.5582 36.3586 3.58182 36.3831L3.65357 36.4594C3.67718 36.4857 3.7017 36.512 3.72531 36.5393C3.74893 36.5665 3.77436 36.5938 3.79888 36.6229C4.16216 36.9916 4.77067 38.3121 4.8515 38.4774C4.93233 38.6427 5.00408 38.8008 5.07674 38.967C5.1494 39.1332 5.22024 39.303 5.28835 39.4765C5.35647 39.6499 5.42186 39.8252 5.48453 40.0032C5.54719 40.1812 5.60714 40.362 5.66617 40.5436V40.5572L5.67071 40.5727C5.67242 40.5792 5.67454 40.5855 5.67707 40.5918C5.67707 40.599 5.68161 40.6072 5.68434 40.6163L5.68979 40.6335L5.69523 40.6526C5.69523 40.6599 5.69524 40.6671 5.7025 40.6753C5.70977 40.6835 5.70795 40.6935 5.71067 40.7035C5.71351 40.7115 5.71594 40.7197 5.71794 40.728L5.72611 40.7525C5.72812 40.7608 5.73054 40.769 5.73338 40.777C5.73526 40.7857 5.73769 40.7941 5.74064 40.8025C5.74033 40.8049 5.74033 40.8073 5.74064 40.8097C5.74037 40.8137 5.74037 40.8176 5.74064 40.8215C5.74064 40.8261 5.74064 40.8315 5.74064 40.8388C5.74386 40.848 5.74659 40.8574 5.74882 40.8669C5.74882 40.8778 5.75518 40.8887 5.75881 40.9006C5.76244 40.9124 5.76517 40.9242 5.76971 40.9369C5.77425 40.9496 5.77697 40.9632 5.78061 40.9777C5.78424 40.9923 5.78969 41.0095 5.79514 41.0268C5.79471 41.0295 5.79471 41.0323 5.79514 41.035C5.79482 41.0374 5.79482 41.0398 5.79514 41.0422C5.79545 41.0446 5.79545 41.0471 5.79514 41.0495C5.79556 41.0522 5.79556 41.055 5.79514 41.0577L5.80604 41.094C5.80604 41.1058 5.8124 41.1185 5.81603 41.1303C5.81966 41.1421 5.82238 41.1549 5.82511 41.1667C5.82783 41.1785 5.83238 41.1912 5.8351 41.2039C5.83549 41.206 5.83549 41.2081 5.8351 41.2103C5.83551 41.2127 5.83551 41.2151 5.8351 41.2175C5.83549 41.2196 5.83549 41.2218 5.8351 41.2239V41.2311C5.8351 41.2429 5.84146 41.2548 5.84509 41.2666C5.84872 41.2784 5.85054 41.2911 5.85417 41.3029C5.8578 41.3147 5.86053 41.3265 5.86325 41.3392C5.86598 41.3519 5.86961 41.3628 5.87234 41.3746C5.87276 41.3773 5.87276 41.3801 5.87234 41.3828V41.391C5.87234 41.391 5.87234 41.3973 5.87234 41.4001C5.87276 41.4028 5.87276 41.4055 5.87234 41.4082C5.87234 41.421 5.8796 41.4346 5.88233 41.4482C5.88505 41.4618 5.88959 41.4745 5.89232 41.4873C5.89504 41.5 5.89867 41.5145 5.90231 41.5272C5.90594 41.5399 5.90867 41.5545 5.91139 41.5672V41.5754C5.91096 41.5781 5.91096 41.5808 5.91139 41.5835V41.5917C5.91139 41.5917 5.91139 41.5981 5.91139 41.5999C5.91139 41.6017 5.91775 41.6271 5.92138 41.6417C5.92501 41.6562 5.92774 41.6698 5.93137 41.6852C5.935 41.7007 5.93864 41.7161 5.94227 41.7334C5.9459 41.7506 5.95044 41.7697 5.95499 41.7897C5.95953 41.8097 5.96134 41.8178 5.96497 41.8324C5.96861 41.8469 5.97133 41.8605 5.97406 41.8751C5.97678 41.8896 5.98041 41.9041 5.98405 41.9187C5.98768 41.9332 5.9895 41.9468 5.99313 41.9613L6.99217 42.8169L7.073 39.0024L7.14293 35.7155C7.1732 35.6399 7.18562 35.5633 7.18017 35.4858ZM3.8007 32.1789L1.43933 30.7358L1.31037 20.1741L4.46824 21.0043L6.15661 33.6203L3.8007 32.1789Z" fill="#D7E1E2"/>
<path d="M6.15983 33.7235C6.1409 33.7233 6.12238 33.7179 6.10625 33.708L1.38989 30.8263C1.37467 30.8165 1.36218 30.8031 1.3536 30.7872C1.34502 30.7713 1.34063 30.7535 1.34085 30.7354L1.21097 20.1738C1.21058 20.1579 1.21391 20.1422 1.22069 20.1278C1.22747 20.1135 1.23752 20.1009 1.25002 20.0912C1.26271 20.0813 1.27753 20.0745 1.29329 20.0713C1.30905 20.0682 1.32534 20.0688 1.34085 20.073L4.50143 20.904C4.52186 20.9096 4.54009 20.9213 4.55372 20.9375C4.56734 20.9538 4.57572 20.9737 4.57772 20.9948L6.26337 33.5909C6.26709 33.6017 6.26894 33.6131 6.26882 33.6245C6.26882 33.6518 6.25803 33.678 6.23881 33.6974C6.21959 33.7168 6.19349 33.7278 6.16619 33.728L6.15983 33.7235ZM1.54701 30.6773L6.02905 33.4183L4.37882 21.0866L1.41895 20.3082L1.54701 30.6773Z" fill="black"/>
<path d="M6.46989 40.0664H6.45809C6.41086 40.0664 5.74605 39.6741 5.64978 39.3126C5.12301 37.3309 3.5863 35.7969 3.57086 35.7815L1.31031 34.2175C1.27419 34.1954 1.24431 34.1645 1.22349 34.1276C1.20267 34.0907 1.1916 34.0492 1.19133 34.0068L1.06055 20.1756C1.06026 20.137 1.06878 20.0989 1.08547 20.0641C1.10215 20.0293 1.12656 19.9988 1.15682 19.9749C1.18759 19.9518 1.22311 19.9358 1.2608 19.9281C1.2985 19.9204 1.33744 19.9212 1.3748 19.9304L4.53358 20.7605C4.58115 20.7737 4.62376 20.8006 4.65608 20.8379C4.68839 20.8753 4.70897 20.9213 4.71522 20.9703L6.40632 33.5545C6.41177 33.5763 6.41449 34.787 6.41449 34.7997C6.41449 34.9305 6.47262 40.0038 6.47353 40.0546L6.46989 40.0664ZM1.31304 19.9449C1.28272 19.9447 1.25265 19.9505 1.22461 19.962C1.19656 19.9735 1.17109 19.9905 1.14969 20.012C1.1283 20.0335 1.1114 20.059 1.09999 20.0871C1.08858 20.1152 1.0829 20.1453 1.08326 20.1756L1.21404 34.0041C1.21435 34.0427 1.22453 34.0805 1.2436 34.1141C1.26268 34.1476 1.29002 34.1757 1.32303 34.1957L3.5854 35.7615C3.60174 35.7778 5.14299 37.3164 5.6743 39.3035C5.76512 39.6378 6.35001 39.9983 6.449 40.0374C6.449 39.7313 6.39088 34.9241 6.39088 34.797C6.39088 34.7379 6.39088 33.5899 6.3827 33.5554L4.69524 20.973C4.68933 20.9281 4.6702 20.886 4.64028 20.852C4.61035 20.8181 4.571 20.7938 4.52722 20.7823L1.36935 19.9522C1.35094 19.9475 1.33203 19.945 1.31304 19.9449Z" fill="#848484"/>
<path opacity="0.3" d="M5.28584 39.4793C5.35396 39.6518 5.41935 39.828 5.48202 40.0061C5.54469 40.1841 5.60463 40.3648 5.66366 40.5464V40.5601L5.6682 40.5755C5.66991 40.582 5.67203 40.5884 5.67456 40.5946C5.67456 40.6018 5.6791 40.61 5.68182 40.6191L5.68727 40.6364L5.69273 40.6554C5.69273 40.6627 5.69272 40.67 5.69999 40.6781C5.70726 40.6863 5.70544 40.6963 5.70816 40.7063C5.711 40.7143 5.71343 40.7225 5.71543 40.7308L5.7236 40.7553C5.72561 40.7636 5.72803 40.7718 5.73087 40.7798C5.73275 40.7885 5.73518 40.797 5.73814 40.8053C5.73782 40.8077 5.73782 40.8101 5.73814 40.8125C5.73786 40.8165 5.73786 40.8204 5.73814 40.8244C5.73814 40.8289 5.73814 40.8343 5.73814 40.8416C5.74135 40.8508 5.74408 40.8602 5.74631 40.8698C5.74631 40.8807 5.75267 40.8916 5.7563 40.9034C5.75993 40.9152 5.76266 40.927 5.7672 40.9397C5.77174 40.9524 5.77446 40.966 5.7781 40.9806C5.78173 40.9951 5.78718 41.0124 5.79263 41.0296C5.7922 41.0323 5.7922 41.0351 5.79263 41.0378C5.79231 41.0402 5.79231 41.0426 5.79263 41.045C5.79294 41.0475 5.79294 41.0499 5.79263 41.0523C5.79305 41.055 5.79305 41.0578 5.79263 41.0605L5.80352 41.0968C5.80352 41.1086 5.80988 41.1213 5.81352 41.1331C5.81715 41.145 5.81987 41.1577 5.8226 41.1695C5.82532 41.1813 5.82986 41.194 5.83259 41.2067C5.83298 41.2088 5.83298 41.211 5.83259 41.2131C5.83299 41.2155 5.83299 41.2179 5.83259 41.2203C5.83298 41.2224 5.83298 41.2246 5.83259 41.2267V41.234C5.83259 41.2458 5.83895 41.2576 5.84258 41.2694C5.84621 41.2812 5.84803 41.2939 5.85166 41.3057C5.8553 41.3175 5.85802 41.3293 5.86074 41.342C5.86347 41.3547 5.8671 41.3657 5.86983 41.3775C5.87025 41.3802 5.87025 41.3829 5.86983 41.3856V41.3938C5.86983 41.3938 5.86983 41.4002 5.86983 41.4029C5.87025 41.4056 5.87025 41.4084 5.86983 41.4111C5.86983 41.4238 5.87709 41.4374 5.87982 41.451C5.88254 41.4646 5.88708 41.4774 5.88981 41.4901C5.89253 41.5028 5.89617 41.5173 5.8998 41.53C5.90343 41.5428 5.90615 41.5573 5.90888 41.57V41.5782C5.90845 41.5809 5.90845 41.5836 5.90888 41.5863V41.5945C5.90888 41.5945 5.90888 41.6009 5.90888 41.6027C5.90888 41.6045 5.91524 41.6299 5.91887 41.6445C5.9225 41.659 5.92523 41.6726 5.92886 41.6881C5.93249 41.7035 5.93612 41.7189 5.93976 41.7362C5.94339 41.7535 5.94793 41.7725 5.95247 41.7925C5.95702 41.8125 5.95883 41.8207 5.96246 41.8352C5.9661 41.8497 5.96882 41.8634 5.97155 41.8779C5.97427 41.8924 5.9779 41.9069 5.98154 41.9215C5.98517 41.936 5.98699 41.9496 5.99062 41.9642L6.98966 42.8197L7.07049 39.0052L7.14042 35.7184C7.14042 35.6433 7.1386 35.567 7.13497 35.4895C7.13134 35.412 7.12226 35.3348 7.10772 35.2579C7.09592 35.1807 7.08048 35.1035 7.06231 35.0272C7.04415 34.9509 7.02235 34.8755 6.99874 34.8011L6.48106 30.7541C6.19951 30.3647 5.89677 29.9842 5.57284 29.6124L6.1096 33.624L3.75368 32.1827L1.39232 30.7395L1.33329 25.9768C0.697537 25.5618 0.230713 25.1803 -0.466797 24.8125V33.3906L2.13797 35.287C2.1861 35.306 2.23424 35.3269 2.28328 35.3505C2.33232 35.3741 2.38228 35.4005 2.43223 35.4286C2.48218 35.4568 2.53395 35.4886 2.58481 35.5195C2.63567 35.5503 2.68925 35.5894 2.74193 35.6284L2.89723 35.7483C2.95354 35.7937 3.01439 35.8446 3.07888 35.9C3.14336 35.9554 3.2133 36.019 3.28595 36.0871C3.35861 36.1552 3.4349 36.2297 3.51301 36.3105C3.53662 36.3341 3.55932 36.3587 3.58294 36.3832L3.65469 36.4595C3.6783 36.4858 3.70282 36.5121 3.72644 36.5394C3.75005 36.5666 3.77548 36.5939 3.8 36.6229C4.16329 36.9917 4.77179 38.3122 4.85263 38.4775C4.93346 38.6428 5.0052 38.8008 5.07786 38.9671C5.15052 39.1333 5.21773 39.3058 5.28584 39.4793Z" fill="url(#paint77_linear)"/>
<path d="M7.11719 39.0021L22.3516 34.2021L23.574 34.7271L8.17072 39.7877L7.11719 39.0021Z" fill="#313747"/>
<path d="M8.16953 39.7871L23.5729 34.7266L23.186 38.0234L8.06055 43.6952L8.16953 39.7871Z" fill="#1B212D"/>
<path d="M7.1169 39.0029L8.17041 39.7885L8.06143 43.6966L7.03516 42.8211L7.1169 39.0029Z" fill="#272C38"/>
<path d="M13.1211 41.3326V38.8414L19.4677 36.6816V38.8832L13.1211 41.3326ZM13.5707 39.1629V40.6769L19.0199 38.5753V37.3092L13.5707 39.1629Z" fill="black"/>
<path d="M13.3438 39.0013L19.2408 36.9941V38.7279L13.3438 41.0039V39.0013Z" fill="#D7E1E2"/>
<path d="M20.084 34.8607C20.084 34.8862 20.084 34.9107 20.084 34.9361L22.3545 34.2195L22.6515 31.5239C22.6579 31.4636 22.6603 31.4029 22.6588 31.3423C22.6588 31.3141 22.6588 31.286 22.6515 31.2578C21.1829 31.6393 20.084 33.106 20.084 34.8607Z" fill="#93A2B9"/>
<path d="M22.2635 31.7822C21.2881 32.2418 20.6042 33.2472 20.4707 34.4342L22.0256 33.9438L22.2635 31.7822Z" fill="white"/>
<path d="M22.2635 31.7822C21.2881 32.2418 20.6042 33.2472 20.4707 34.4342L22.0256 33.9438L22.2635 31.7822Z" fill="white"/>
<path d="M21.6846 33.001C21.5074 33.0907 21.3561 33.2241 21.2449 33.3886C21.1336 33.5531 21.0662 33.7432 21.0488 33.941L21.6001 33.7675L21.6846 33.001Z" fill="#93A2B9"/>
<path d="M22.1595 33.9213L22.372 31.7988C21.6311 32.1921 21.0351 32.8116 20.6709 33.5671C20.6709 33.5671 21.5528 32.3937 22.1595 32.1285L22.1059 33.3092L20.541 33.9222L22.0913 33.4563L22.1595 33.9213Z" fill="#66778E"/>
<path d="M10.8009 37.8422C10.1652 36.5471 8.93089 35.668 7.51044 35.668C7.40146 35.668 7.29338 35.6761 7.18621 35.6861C7.18621 35.6952 7.18621 35.7061 7.18621 35.7152L7.11719 39.0011L10.8009 37.8422Z" fill="#93A2B9"/>
<path d="M10.8009 37.8422C10.1652 36.5471 8.93089 35.668 7.51044 35.668C7.40146 35.668 7.29338 35.6761 7.18621 35.6861C7.18621 35.6952 7.18621 35.7061 7.18621 35.7152L7.11719 39.0011L10.8009 37.8422Z" fill="#93A2B9"/>
<path d="M7.54682 36.0312L7.49414 38.5034L10.2688 37.6297C9.64572 36.6443 8.63577 36.0431 7.54682 36.0312Z" fill="white"/>
<path d="M8.44304 36.8633L8.42578 37.6725L9.33398 37.3864C9.24134 37.2314 9.11116 37.1023 8.95545 37.0108C8.79974 36.9194 8.62352 36.8687 8.44304 36.8633Z" fill="#93A2B9"/>
<path d="M7.5642 36.1182L7.45703 38.6557L7.66138 37.6658L9.71577 37.0845L7.66138 37.4759V36.288C7.66138 36.288 8.7685 36.5296 9.4651 36.9937C9.4651 36.9937 9.10272 36.2353 7.5642 36.1182Z" fill="#66778E"/>
<path d="M3.5015 25.1666H3.11914C3.11914 25.1666 3.11914 26.2674 3.11914 25.0503C3.11914 23.6381 4.9946 23.4928 5.07362 23.4873C5.10096 23.4874 5.128 23.493 5.15312 23.5038C5.17825 23.5146 5.20094 23.5303 5.21984 23.5501C5.23875 23.5698 5.25348 23.5932 5.26315 23.6188C5.27283 23.6443 5.27725 23.6716 5.27615 23.6989C5.28265 23.7543 5.26732 23.81 5.2334 23.8543C5.19949 23.8985 5.14967 23.9278 5.09451 23.936C5.07816 23.936 3.49877 24.0595 3.49968 25.0503C3.5015 26.2674 3.5015 25.1666 3.5015 25.1666Z" fill="#1F2533"/>
<path d="M4.4322 27.9974C4.4322 28.2717 4.32321 28.5349 4.12921 28.7289C3.93521 28.9229 3.67209 29.0318 3.39774 29.0318C3.12338 29.0318 2.86026 28.9229 2.66626 28.7289C2.47227 28.5349 2.36328 28.2717 2.36328 27.9974V25.7268C2.36328 25.4525 2.47227 25.1894 2.66626 24.9954C2.86026 24.8014 3.12338 24.6924 3.39774 24.6924C3.67209 24.6924 3.93521 24.8014 4.12921 24.9954C4.32321 25.1894 4.4322 25.4525 4.4322 25.7268V27.9974Z" fill="url(#paint78_radial)"/>
<path d="M22.0582 32.8461L22.159 31.9297C21.6434 32.2169 21.223 32.6484 20.9492 33.1712L22.0582 32.8461Z" fill="#F59354"/>
<path d="M9.16942 36.6268C8.71099 36.3192 8.17694 36.1432 7.62545 36.1182L7.60547 37.0845L9.16942 36.6268Z" fill="#F59354"/>
<path d="M11.6765 35.7808C11.6631 35.7806 11.6503 35.7756 11.6403 35.7668C11.6303 35.758 11.6237 35.746 11.6217 35.7328C11.6197 35.7196 11.6225 35.7061 11.6296 35.6948C11.6366 35.6835 11.6474 35.675 11.6601 35.6709L18.9622 33.5121C18.9765 33.5078 18.9919 33.5095 19.005 33.5166C19.0181 33.5238 19.0279 33.5359 19.0321 33.5502C19.0363 33.5645 19.0347 33.58 19.0275 33.5931C19.0204 33.6062 19.0083 33.6159 18.994 33.6201L11.6919 35.779C11.6869 35.7804 11.6817 35.781 11.6765 35.7808Z" fill="#66778E"/>
<path d="M11.6771 36.3503C11.6651 36.3504 11.6533 36.3465 11.6436 36.3393C11.634 36.3321 11.6269 36.3219 11.6235 36.3103C11.6192 36.2962 11.6206 36.281 11.6274 36.2679C11.6342 36.2549 11.6459 36.245 11.6599 36.2404L18.9629 33.978C18.9701 33.975 18.9779 33.9735 18.9858 33.9736C18.9937 33.9738 19.0014 33.9756 19.0086 33.979C19.0157 33.9823 19.022 33.9871 19.0272 33.9931C19.0323 33.999 19.0362 34.006 19.0385 34.0135C19.0408 34.021 19.0415 34.029 19.0405 34.0368C19.0396 34.0446 19.037 34.0521 19.0329 34.0589C19.0289 34.0656 19.0235 34.0715 19.017 34.076C19.0106 34.0805 19.0033 34.0837 18.9956 34.0852L11.6935 36.3476L11.6771 36.3503Z" fill="#66778E"/>
<path d="M11.7223 36.9038C11.7089 36.9037 11.6959 36.8989 11.6857 36.8902C11.6755 36.8815 11.6688 36.8694 11.6667 36.8562C11.6646 36.8429 11.6673 36.8294 11.6744 36.8179C11.6814 36.8065 11.6923 36.798 11.705 36.7939L18.9099 34.4597C18.9241 34.4552 18.9396 34.4564 18.9529 34.4632C18.9662 34.47 18.9762 34.4819 18.9808 34.4961C18.9853 34.5103 18.9841 34.5257 18.9773 34.539C18.9705 34.5523 18.9586 34.5623 18.9444 34.5669L11.7395 36.9019C11.7339 36.9034 11.7281 36.904 11.7223 36.9038Z" fill="#66778E"/>
<path d="M0.639014 32.3563L0.0405086 31.9367C0.0405086 31.9367 -0.154754 31.8913 -0.128416 32.1456C-0.102078 32.3999 -0.0775573 32.3563 0.253937 32.5434C0.253937 32.5434 0.648096 32.775 0.639014 32.3563Z" fill="#F59354"/>
<path d="M1.50781 31.498L2.42421 32.0103V32.5316L1.50781 31.9776V31.498Z" fill="#272C38"/>
</g>
<defs>
<filter id="filter0_d" x="15.2676" y="0.772461" width="28.6445" height="38.1744" filterUnits="userSpaceOnUse" color-interpolation-filters="sRGB">
<feFlood flood-opacity="0" result="BackgroundImageFix"/>
<feColorMatrix in="SourceAlpha" type="matrix" values="0 0 0 0 0 0 0 0 0 0 0 0 0 0 0 0 0 0 127 0" result="hardAlpha"/>
<feOffset dx="1" dy="1"/>
<feGaussianBlur stdDeviation="1"/>
<feColorMatrix type="matrix" values="0 0 0 0 0 0 0 0 0 0 0 0 0 0 0 0 0 0 0.25 0"/>
<feBlend mode="normal" in2="BackgroundImageFix" result="effect1_dropShadow"/>
<feBlend mode="normal" in="SourceGraphic" in2="effect1_dropShadow" result="shape"/>
</filter>
<radialGradient id="paint0_radial" cx="0" cy="0" r="1" gradientUnits="userSpaceOnUse" gradientTransform="translate(21.4871 22.8684) scale(2.8336 3.41399)">
<stop stop-color="#3D4353"/>
<stop offset="1" stop-color="#171A23"/>
</radialGradient>
<linearGradient id="paint1_linear" x1="10.8647" y1="14.3107" x2="-8.18243" y2="14.1972" gradientUnits="userSpaceOnUse">
<stop stop-color="#F0C074"/>
<stop offset="1" stop-color="#B47D42"/>
</linearGradient>
<linearGradient id="paint2_linear" x1="6.03355" y1="11.328" x2="6.03355" y2="31.8192" gradientUnits="userSpaceOnUse">
<stop stop-color="#D09D5C"/>
<stop offset="0.07" stop-color="#DAA866"/>
<stop offset="0.17" stop-color="#E1B06C"/>
<stop offset="0.38" stop-color="#E3B26E"/>
<stop offset="0.62" stop-color="#D3A05F"/>
<stop offset="1" stop-color="#B37D41"/>
</linearGradient>
<linearGradient id="paint3_linear" x1="8.88003" y1="11.9415" x2="8.88003" y2="29.5736" gradientUnits="userSpaceOnUse">
<stop stop-color="#E3AD86"/>
<stop offset="1" stop-color="#FFD5B3"/>
</linearGradient>
<linearGradient id="paint4_linear" x1="48.9366" y1="353.108" x2="48.9366" y2="3335.63" gradientUnits="userSpaceOnUse">
<stop stop-color="#E3AD86"/>
<stop offset="1" stop-color="#FFD5B3"/>
</linearGradient>
<linearGradient id="paint5_linear" x1="48.3721" y1="355.189" x2="48.3721" y2="3357.79" gradientUnits="userSpaceOnUse">
<stop stop-color="#E3AD86"/>
<stop offset="1" stop-color="#FFD5B3"/>
</linearGradient>
<linearGradient id="paint6_linear" x1="47.8019" y1="357.255" x2="47.8019" y2="3379.81" gradientUnits="userSpaceOnUse">
<stop stop-color="#E3AD86"/>
<stop offset="1" stop-color="#FFD5B3"/>
</linearGradient>
<linearGradient id="paint7_linear" x1="49.713" y1="348.985" x2="49.713" y2="3291.6" gradientUnits="userSpaceOnUse">
<stop stop-color="#E3AD86"/>
<stop offset="1" stop-color="#FFD5B3"/>
</linearGradient>
<linearGradient id="paint8_linear" x1="50.6558" y1="346.923" x2="50.6558" y2="3269.51" gradientUnits="userSpaceOnUse">
<stop stop-color="#E3AD86"/>
<stop offset="1" stop-color="#FFD5B3"/>
</linearGradient>
<linearGradient id="paint9_linear" x1="45.8698" y1="365.761" x2="45.8698" y2="3468.84" gradientUnits="userSpaceOnUse">
<stop stop-color="#E3AD86"/>
<stop offset="1" stop-color="#FFD5B3"/>
</linearGradient>
<linearGradient id="paint10_linear" x1="44.3777" y1="369.92" x2="44.3777" y2="3513.12" gradientUnits="userSpaceOnUse">
<stop stop-color="#E3AD86"/>
<stop offset="1" stop-color="#FFD5B3"/>
</linearGradient>
<linearGradient id="paint11_linear" x1="44.9463" y1="367.838" x2="44.9463" y2="3491.03" gradientUnits="userSpaceOnUse">
<stop stop-color="#E3AD86"/>
<stop offset="1" stop-color="#FFD5B3"/>
</linearGradient>
<linearGradient id="paint12_linear" x1="46.6611" y1="361.644" x2="46.6611" y2="3425.03" gradientUnits="userSpaceOnUse">
<stop stop-color="#E3AD86"/>
<stop offset="1" stop-color="#FFD5B3"/>
</linearGradient>
<linearGradient id="paint13_linear" x1="46.0889" y1="363.647" x2="46.0889" y2="3446.48" gradientUnits="userSpaceOnUse">
<stop stop-color="#E3AD86"/>
<stop offset="1" stop-color="#FFD5B3"/>
</linearGradient>
<linearGradient id="paint14_linear" x1="47.2324" y1="359.291" x2="47.2324" y2="3401.67" gradientUnits="userSpaceOnUse">
<stop stop-color="#E3AD86"/>
<stop offset="1" stop-color="#FFD5B3"/>
</linearGradient>
<linearGradient id="paint15_linear" x1="51.2293" y1="344.792" x2="51.2293" y2="3246.88" gradientUnits="userSpaceOnUse">
<stop stop-color="#E3AD86"/>
<stop offset="1" stop-color="#FFD5B3"/>
</linearGradient>
<linearGradient id="paint16_linear" x1="56.3588" y1="326.713" x2="56.3588" y2="3051.75" gradientUnits="userSpaceOnUse">
<stop stop-color="#E3AD86"/>
<stop offset="1" stop-color="#FFD5B3"/>
</linearGradient>
<linearGradient id="paint17_linear" x1="56.931" y1="324.816" x2="56.931" y2="3031.43" gradientUnits="userSpaceOnUse">
<stop stop-color="#E3AD86"/>
<stop offset="1" stop-color="#FFD5B3"/>
</linearGradient>
<linearGradient id="paint18_linear" x1="54.8305" y1="330.556" x2="54.8305" y2="3094.6" gradientUnits="userSpaceOnUse">
<stop stop-color="#E3AD86"/>
<stop offset="1" stop-color="#FFD5B3"/>
</linearGradient>
<linearGradient id="paint19_linear" x1="55.7886" y1="328.732" x2="55.7886" y2="3073.42" gradientUnits="userSpaceOnUse">
<stop stop-color="#E3AD86"/>
<stop offset="1" stop-color="#FFD5B3"/>
</linearGradient>
<linearGradient id="paint20_linear" x1="57.5003" y1="322.71" x2="57.5003" y2="3008.97" gradientUnits="userSpaceOnUse">
<stop stop-color="#E3AD86"/>
<stop offset="1" stop-color="#FFD5B3"/>
</linearGradient>
<linearGradient id="paint21_linear" x1="58.0638" y1="320.691" x2="58.0638" y2="2987.35" gradientUnits="userSpaceOnUse">
<stop stop-color="#E3AD86"/>
<stop offset="1" stop-color="#FFD5B3"/>
</linearGradient>
<linearGradient id="paint22_linear" x1="52.9366" y1="338.737" x2="52.9366" y2="3182.08" gradientUnits="userSpaceOnUse">
<stop stop-color="#E3AD86"/>
<stop offset="1" stop-color="#FFD5B3"/>
</linearGradient>
<linearGradient id="paint23_linear" x1="51.7892" y1="342.818" x2="51.7892" y2="3225.73" gradientUnits="userSpaceOnUse">
<stop stop-color="#E3AD86"/>
<stop offset="1" stop-color="#FFD5B3"/>
</linearGradient>
<linearGradient id="paint24_linear" x1="52.3684" y1="340.774" x2="52.3684" y2="3203.87" gradientUnits="userSpaceOnUse">
<stop stop-color="#E3AD86"/>
<stop offset="1" stop-color="#FFD5B3"/>
</linearGradient>
<linearGradient id="paint25_linear" x1="54.077" y1="334.661" x2="54.077" y2="3138.4" gradientUnits="userSpaceOnUse">
<stop stop-color="#E3AD86"/>
<stop offset="1" stop-color="#FFD5B3"/>
</linearGradient>
<linearGradient id="paint26_linear" x1="54.6472" y1="332.624" x2="54.6472" y2="3116.65" gradientUnits="userSpaceOnUse">
<stop stop-color="#E3AD86"/>
<stop offset="1" stop-color="#FFD5B3"/>
</linearGradient>
<linearGradient id="paint27_linear" x1="53.5068" y1="336.686" x2="53.5068" y2="3160.18" gradientUnits="userSpaceOnUse">
<stop stop-color="#E3AD86"/>
<stop offset="1" stop-color="#FFD5B3"/>
</linearGradient>
<linearGradient id="paint28_linear" x1="43.8091" y1="372.031" x2="43.8091" y2="3535.66" gradientUnits="userSpaceOnUse">
<stop stop-color="#E3AD86"/>
<stop offset="1" stop-color="#FFD5B3"/>
</linearGradient>
<linearGradient id="paint29_linear" x1="33.243" y1="411.855" x2="33.243" y2="3937.98" gradientUnits="userSpaceOnUse">
<stop stop-color="#E3AD86"/>
<stop offset="1" stop-color="#FFD5B3"/>
</linearGradient>
<linearGradient id="paint30_linear" x1="32.3916" y1="416.29" x2="32.3916" y2="3982.16" gradientUnits="userSpaceOnUse">
<stop stop-color="#E3AD86"/>
<stop offset="1" stop-color="#FFD5B3"/>
</linearGradient>
<linearGradient id="paint31_linear" x1="32.9665" y1="414.164" x2="32.9665" y2="3960.15" gradientUnits="userSpaceOnUse">
<stop stop-color="#E3AD86"/>
<stop offset="1" stop-color="#FFD5B3"/>
</linearGradient>
<linearGradient id="paint32_linear" x1="34.1098" y1="409.574" x2="34.1098" y2="3916.1" gradientUnits="userSpaceOnUse">
<stop stop-color="#E3AD86"/>
<stop offset="1" stop-color="#FFD5B3"/>
</linearGradient>
<linearGradient id="paint33_linear" x1="35.2505" y1="404.968" x2="35.2505" y2="3871.37" gradientUnits="userSpaceOnUse">
<stop stop-color="#E3AD86"/>
<stop offset="1" stop-color="#FFD5B3"/>
</linearGradient>
<linearGradient id="paint34_linear" x1="36.7365" y1="402.726" x2="36.7365" y2="3849.72" gradientUnits="userSpaceOnUse">
<stop stop-color="#E3AD86"/>
<stop offset="1" stop-color="#FFD5B3"/>
</linearGradient>
<linearGradient id="paint35_linear" x1="34.677" y1="407.238" x2="34.677" y2="3893.47" gradientUnits="userSpaceOnUse">
<stop stop-color="#E3AD86"/>
<stop offset="1" stop-color="#FFD5B3"/>
</linearGradient>
<linearGradient id="paint36_linear" x1="37.2699" y1="398.262" x2="37.2699" y2="3804.59" gradientUnits="userSpaceOnUse">
<stop stop-color="#E3AD86"/>
<stop offset="1" stop-color="#FFD5B3"/>
</linearGradient>
<linearGradient id="paint37_linear" x1="40.9571" y1="382.846" x2="40.9571" y2="3647.15" gradientUnits="userSpaceOnUse">
<stop stop-color="#E3AD86"/>
<stop offset="1" stop-color="#FFD5B3"/>
</linearGradient>
<linearGradient id="paint38_linear" x1="40.3853" y1="385.035" x2="40.3853" y2="3670.2" gradientUnits="userSpaceOnUse">
<stop stop-color="#E3AD86"/>
<stop offset="1" stop-color="#FFD5B3"/>
</linearGradient>
<linearGradient id="paint39_linear" x1="36.3906" y1="400.551" x2="36.3906" y2="3826.91" gradientUnits="userSpaceOnUse">
<stop stop-color="#E3AD86"/>
<stop offset="1" stop-color="#FFD5B3"/>
</linearGradient>
<linearGradient id="paint40_linear" x1="39.8128" y1="387.228" x2="39.8128" y2="3691.82" gradientUnits="userSpaceOnUse">
<stop stop-color="#E3AD86"/>
<stop offset="1" stop-color="#FFD5B3"/>
</linearGradient>
<linearGradient id="paint41_linear" x1="42.6671" y1="376.386" x2="42.6671" y2="3580.21" gradientUnits="userSpaceOnUse">
<stop stop-color="#E3AD86"/>
<stop offset="1" stop-color="#FFD5B3"/>
</linearGradient>
<linearGradient id="paint42_linear" x1="42.0989" y1="378.475" x2="42.0989" y2="3602.39" gradientUnits="userSpaceOnUse">
<stop stop-color="#E3AD86"/>
<stop offset="1" stop-color="#FFD5B3"/>
</linearGradient>
<linearGradient id="paint43_linear" x1="41.5253" y1="380.788" x2="41.5253" y2="3625.24" gradientUnits="userSpaceOnUse">
<stop stop-color="#E3AD86"/>
<stop offset="1" stop-color="#FFD5B3"/>
</linearGradient>
<linearGradient id="paint44_linear" x1="39.2445" y1="389.426" x2="39.2445" y2="3715.01" gradientUnits="userSpaceOnUse">
<stop stop-color="#E3AD86"/>
<stop offset="1" stop-color="#FFD5B3"/>
</linearGradient>
<linearGradient id="paint45_linear" x1="37.5333" y1="396.119" x2="37.5333" y2="3782.12" gradientUnits="userSpaceOnUse">
<stop stop-color="#E3AD86"/>
<stop offset="1" stop-color="#FFD5B3"/>
</linearGradient>
<linearGradient id="paint46_linear" x1="43.2357" y1="374.383" x2="43.2357" y2="3558.9" gradientUnits="userSpaceOnUse">
<stop stop-color="#E3AD86"/>
<stop offset="1" stop-color="#FFD5B3"/>
</linearGradient>
<linearGradient id="paint47_linear" x1="38.6747" y1="391.712" x2="38.6747" y2="3737.44" gradientUnits="userSpaceOnUse">
<stop stop-color="#E3AD86"/>
<stop offset="1" stop-color="#FFD5B3"/>
</linearGradient>
<linearGradient id="paint48_linear" x1="38.1022" y1="393.821" x2="38.1022" y2="3759.57" gradientUnits="userSpaceOnUse">
<stop stop-color="#E3AD86"/>
<stop offset="1" stop-color="#FFD5B3"/>
</linearGradient>
<linearGradient id="paint49_linear" x1="1085.43" y1="16.4555" x2="868.47" y2="3.29903" gradientUnits="userSpaceOnUse">
<stop stop-color="#F0C074"/>
<stop offset="1" stop-color="#B47D42"/>
</linearGradient>
<linearGradient id="paint50_linear" x1="1324.96" y1="16.8495" x2="977.007" y2="-3.85379" gradientUnits="userSpaceOnUse">
<stop stop-color="#F0C074"/>
<stop offset="1" stop-color="#B47D42"/>
</linearGradient>
<linearGradient id="paint51_linear" x1="855.62" y1="15.9326" x2="732.376" y2="8.06237" gradientUnits="userSpaceOnUse">
<stop stop-color="#F0C074"/>
<stop offset="1" stop-color="#B47D42"/>
</linearGradient>
<linearGradient id="paint52_linear" x1="130.36" y1="14.4719" x2="128.228" y2="14.3145" gradientUnits="userSpaceOnUse">
<stop stop-color="#F0C074"/>
<stop offset="1" stop-color="#B47D42"/>
</linearGradient>
<linearGradient id="paint53_linear" x1="490.828" y1="15.2812" x2="453.083" y2="12.9673" gradientUnits="userSpaceOnUse">
<stop stop-color="#F0C074"/>
<stop offset="1" stop-color="#B47D42"/>
</linearGradient>
<linearGradient id="paint54_linear" x1="1448.85" y1="18.2907" x2="858.907" y2="-13.9892" gradientUnits="userSpaceOnUse">
<stop stop-color="#F0C074"/>
<stop offset="1" stop-color="#B47D42"/>
</linearGradient>
<linearGradient id="paint55_linear" x1="1537.5" y1="17.9768" x2="930.168" y2="-15.8974" gradientUnits="userSpaceOnUse">
<stop stop-color="#F0C074"/>
<stop offset="1" stop-color="#B47D42"/>
</linearGradient>
<linearGradient id="paint56_linear" x1="1529.59" y1="17.1392" x2="1030.1" y2="-12.3263" gradientUnits="userSpaceOnUse">
<stop stop-color="#F0C074"/>
<stop offset="1" stop-color="#B47D42"/>
</linearGradient>
<linearGradient id="paint57_linear" x1="1403.09" y1="18.6152" x2="806.289" y2="-14.0943" gradientUnits="userSpaceOnUse">
<stop stop-color="#F0C074"/>
<stop offset="1" stop-color="#B47D42"/>
</linearGradient>
<linearGradient id="paint58_linear" x1="1535.11" y1="17.6736" x2="959.93" y2="-14.4345" gradientUnits="userSpaceOnUse">
<stop stop-color="#F0C074"/>
<stop offset="1" stop-color="#B47D42"/>
</linearGradient>
<linearGradient id="paint59_linear" x1="1575.46" y1="17.3863" x2="1008.17" y2="-14.9932" gradientUnits="userSpaceOnUse">
<stop stop-color="#F0C074"/>
<stop offset="1" stop-color="#B47D42"/>
</linearGradient>
<linearGradient id="paint60_linear" x1="1305.98" y1="19.2967" x2="696.502" y2="-12.0055" gradientUnits="userSpaceOnUse">
<stop stop-color="#F0C074"/>
<stop offset="1" stop-color="#B47D42"/>
</linearGradient>
<linearGradient id="paint61_linear" x1="1236.76" y1="20.0561" x2="593.279" y2="-12.9902" gradientUnits="userSpaceOnUse">
<stop stop-color="#F0C074"/>
<stop offset="1" stop-color="#B47D42"/>
</linearGradient>
<linearGradient id="paint62_linear" x1="1254.72" y1="19.6659" x2="639.601" y2="-11.9554" gradientUnits="userSpaceOnUse">
<stop stop-color="#F0C074"/>
<stop offset="1" stop-color="#B47D42"/>
</linearGradient>
<linearGradient id="paint63_linear" x1="1146.66" y1="20.4522" x2="521.934" y2="-10.3256" gradientUnits="userSpaceOnUse">
<stop stop-color="#F0C074"/>
<stop offset="1" stop-color="#B47D42"/>
</linearGradient>
<linearGradient id="paint64_linear" x1="1355.22" y1="18.9509" x2="752.097" y2="-13.4043" gradientUnits="userSpaceOnUse">
<stop stop-color="#F0C074"/>
<stop offset="1" stop-color="#B47D42"/>
</linearGradient>
<linearGradient id="paint65_linear" x1="911.24" y1="22.2054" x2="273.217" y2="-7.37454" gradientUnits="userSpaceOnUse">
<stop stop-color="#F0C074"/>
<stop offset="1" stop-color="#B47D42"/>
</linearGradient>
<linearGradient id="paint66_linear" x1="848.403" y1="22.6941" x2="208.35" y2="-6.35964" gradientUnits="userSpaceOnUse">
<stop stop-color="#F0C074"/>
<stop offset="1" stop-color="#B47D42"/>
</linearGradient>
<linearGradient id="paint67_linear" x1="1090.43" y1="20.8647" x2="461.497" y2="-10.1735" gradientUnits="userSpaceOnUse">
<stop stop-color="#F0C074"/>
<stop offset="1" stop-color="#B47D42"/>
</linearGradient>
<linearGradient id="paint68_linear" x1="1032.44" y1="21.2924" x2="399.823" y2="-9.28858" gradientUnits="userSpaceOnUse">
<stop stop-color="#F0C074"/>
<stop offset="1" stop-color="#B47D42"/>
</linearGradient>
<linearGradient id="paint69_linear" x1="972.578" y1="21.7379" x2="336.887" y2="-8.35176" gradientUnits="userSpaceOnUse">
<stop stop-color="#F0C074"/>
<stop offset="1" stop-color="#B47D42"/>
</linearGradient>
<linearGradient id="paint70_linear" x1="-6.21094" y1="15.1089" x2="7.16438" y2="15.1089" gradientUnits="userSpaceOnUse">
<stop stop-color="#78441F"/>
<stop offset="1" stop-color="#B5885E"/>
</linearGradient>
<linearGradient id="paint71_linear" x1="11.4291" y1="32.5212" x2="11.4291" y2="21.3956" gradientUnits="userSpaceOnUse">
<stop stop-color="#5A6D73"/>
<stop offset="1" stop-color="#161920"/>
</linearGradient>
<linearGradient id="paint72_linear" x1="10.2787" y1="24.6598" x2="10.2787" y2="32.8665" gradientUnits="userSpaceOnUse">
<stop stop-color="#416176"/>
<stop offset="1" stop-color="#1D3849"/>
</linearGradient>
<linearGradient id="paint73_linear" x1="10.2745" y1="16.5854" x2="12.238" y2="6.76852" gradientUnits="userSpaceOnUse">
<stop stop-color="#F3F7F8"/>
<stop offset="1" stop-color="#B0B5B9"/>
</linearGradient>
<linearGradient id="paint74_linear" x1="8295.57" y1="2710.31" x2="9171.02" y2="8491.63" gradientUnits="userSpaceOnUse">
<stop stop-color="#F3F7F8"/>
<stop offset="1" stop-color="#B0B5B9"/>
</linearGradient>
<radialGradient id="paint75_radial" cx="0" cy="0" r="1" gradientUnits="userSpaceOnUse" gradientTransform="translate(18.8711 17.8189) scale(16.001)">
<stop stop-color="#416176"/>
<stop offset="0.49" stop-color="#223F52"/>
<stop offset="1" stop-color="#416176"/>
</radialGradient>
<linearGradient id="paint76_linear" x1="7.56445" y1="31.0624" x2="21.5246" y2="31.0624" gradientUnits="userSpaceOnUse">
<stop stop-color="#51555E"/>
<stop offset="1" stop-color="#222632"/>
</linearGradient>
<linearGradient id="paint77_linear" x1="2564" y1="3558.73" x2="3901.16" y2="7876.6" gradientUnits="userSpaceOnUse">
<stop stop-color="#F3F7F8"/>
<stop offset="1" stop-color="#B0B5B9"/>
</linearGradient>
<radialGradient id="paint78_radial" cx="0" cy="0" r="1" gradientUnits="userSpaceOnUse" gradientTransform="translate(707.14 801.195) scale(84.7221 177.701)">
<stop stop-color="#3D4353"/>
<stop offset="1" stop-color="#171A23"/>
</radialGradient>
</defs>
</svg>
