<svg width="55" height="55" viewBox="0 0 55 55" fill="none" xmlns="http://www.w3.org/2000/svg">
<path d="M0 4C0 1.79086 1.79086 0 4 0H51C53.2091 0 55 1.79086 55 4V51C55 53.2091 53.2091 55 51 55H4C1.79086 55 0 53.2091 0 51V4Z" fill="white"/>
<path d="M9.53564 19.6145H13.9368V37.2192H9.53564V19.6145ZM16.1374 19.6145H18.338V37.2192H16.1374V19.6145ZM33.7422 19.6145H35.9428V37.2192H33.7422V19.6145ZM24.9398 19.6145H31.5416V37.2192H24.9398V19.6145ZM20.5386 19.6145H22.7392V37.2192H20.5386V19.6145Z" fill="black"/>
<path d="M39.904 19.6145H37.7034V37.2192H39.904V19.6145Z" fill="black"/>
<path d="M45.1855 19.6145H41.6645V37.2192H45.1855V19.6145Z" fill="black"/>
</svg>
