<svg width="43" height="43" viewBox="0 0 43 43" fill="none" xmlns="http://www.w3.org/2000/svg">
<mask id="mask0" mask-type="alpha" maskUnits="userSpaceOnUse" x="2" y="2" width="40" height="40">
<circle cx="22.2184" cy="21.7662" r="19.5298" fill="#F3F1F9"/>
</mask>
<g mask="url(#mask0)">
<path d="M36.1683 35.7096C43.8726 28.0053 43.8726 15.5142 36.1683 7.80988C28.464 0.105574 15.9728 0.105574 8.26849 7.80988C0.564181 15.5142 0.564181 28.0053 8.26849 35.7096C15.9728 43.414 28.464 43.414 36.1683 35.7096Z" fill="white"/>
<mask id="mask1" mask-type="alpha" maskUnits="userSpaceOnUse" x="-6" y="-6" width="56" height="56">
<path d="M38.9573 38.4986C48.2019 29.254 48.2019 14.2655 38.9573 5.0209C29.7126 -4.22372 14.7241 -4.22372 5.47951 5.0209C-3.76512 14.2655 -3.76512 29.254 5.47951 38.4986C14.7241 47.7433 29.7126 47.7433 38.9573 38.4986Z" fill="#D4D1E1" stroke="black" stroke-width="7.88851"/>
</mask>
<g mask="url(#mask1)">
<g clip-path="url(#clip0)">
<path d="M33.4599 17.7559L31.427 21.6629L30.3874 21.2788L30.7247 22.3235L28.6871 28.5448C28.6871 28.5402 27.5644 20.637 33.4599 17.7559Z" fill="#A1A654"/>
<path d="M30.0729 21.209C30.0729 21.209 27.8274 29.6041 27.6102 37.615C27.6102 37.615 29.4722 38.2755 32.4015 37.7508C35.3401 37.2308 30.0729 21.209 30.0729 21.209Z" fill="#A1A654"/>
<path d="M21.5489 32.8492C22.1496 32.8398 22.9997 32.9148 23.2815 32.6009C23.6003 32.2495 23.9746 32.3011 23.9746 32.3011L23.9007 31.8982L23.8083 31.4156C23.8083 31.4156 23.7759 31.3735 23.6512 31.3735C23.6512 31.3735 23.2122 31.3922 23.0043 31.3173C22.4961 31.1346 20.477 32.362 20.5463 32.6993C20.5694 32.8304 21.2902 32.8539 21.5489 32.8492Z" fill="#E2915A"/>
<path d="M30.5429 20.6445C30.5429 20.6445 27.7052 27.9953 26.8247 28.7858C25.9442 29.5764 22.8144 31.2827 22.8144 31.2827C22.8144 31.2827 22.7337 31.5285 22.8067 31.8852C22.8875 32.2564 23.0413 32.3624 23.0413 32.3624C23.0413 32.3624 27.4207 31.8708 28.4396 31.0803C29.4586 30.2849 31.7041 27.1181 31.7041 27.1181L30.5429 20.6445Z" fill="#A1A654"/>
<path d="M29.4736 34.9783C29.4736 34.9783 29.7139 38.0093 29.9957 41.6494C30.3792 46.5965 30.8366 52.6726 30.8828 53.8204C30.9614 55.8208 31.2756 59.0158 31.2756 59.0158C31.2756 59.0158 32.0241 59.7747 33.5211 59.4562C33.5211 59.4562 34.8563 54.8932 35.2352 50.0632C35.2398 49.9836 35.2491 49.9039 35.2537 49.8243C35.6095 44.91 36.1593 34.5566 36.1593 34.5566L29.4736 34.9783Z" fill="#F99746"/>
<path d="M29.4736 34.9783C29.4736 34.9783 29.7139 38.0093 29.9957 41.6494L35.2398 50.0632C35.2444 49.9836 35.2537 49.9039 35.2583 49.8243C35.6141 44.91 36.1639 34.5566 36.1639 34.5566L29.4736 34.9783Z" fill="#233862"/>
<path d="M30.5632 35.3313C30.5632 35.3313 34.8786 46.303 37.7155 51.4562C40.5524 56.6094 41.4395 58.0476 41.4395 58.0476C41.4395 58.0476 43.0659 57.3871 43.2137 56.9374C43.2137 56.9374 42.128 46.9869 40.229 44.5602C39.1571 43.1876 37.8957 39.0744 37.8357 37.6362C37.7756 36.1979 37.4522 33.3496 37.4522 33.3496L30.5632 35.3313Z" fill="#233862"/>
<path d="M31.6395 19.3403C33.326 19.879 36.246 18.4221 36.246 18.4221C36.246 18.4221 34.689 17.2368 34.7721 14.7773L33.4692 15.8408L32.5821 16.5669C32.5821 16.5669 32.5867 16.9932 32.6837 17.7428C32.7022 17.8787 32.7207 18.0286 32.7484 18.1832C32.7669 18.3097 32.7114 18.4361 32.6052 18.5017C31.9861 18.8906 31.6395 19.3403 31.6395 19.3403Z" fill="#FFB27D"/>
<path d="M29.2875 35.2206C29.3383 35.2628 29.3984 35.2909 29.4631 35.2909C30.096 35.2815 31.9442 35.6376 33.5058 35.4783C34.8226 35.3518 35.987 34.9536 37.2391 34.3867C37.4054 34.3118 37.7889 34.1057 37.7796 33.9136C37.775 33.7075 37.7519 33.4076 37.7288 33.0329C37.641 31.7211 37.4839 29.4678 37.6364 26.8677C37.6641 26.3852 37.678 25.9027 37.678 25.4295C37.6919 21.9066 37.0034 18.8052 35.6173 17.7559C35.6173 17.7559 34.6517 18.304 33.9817 18.5195C33.3256 18.7303 32.9884 18.6881 32.6511 18.4586C32.6511 18.4586 31.9904 18.7912 31.7085 19.1051C31.0524 19.8265 30.5442 20.7869 30.2069 22.1689C29.9205 23.3401 29.6525 25.05 29.5555 27.2425C29.5139 28.2357 29.2413 35.1878 29.2875 35.2206Z" fill="white"/>
<path d="M37.4745 23.579L35.6171 17.7559C35.6171 17.7559 31.1585 19.4611 30.9552 25.8417C30.872 27.294 30.5301 33.253 31.1539 38.1908C31.1539 38.1908 34.6284 39.5634 38.8837 36.8556L37.4745 23.579Z" fill="#C1C765"/>
<path d="M32.5824 16.5668C32.5824 16.5668 32.587 16.9931 32.684 17.7427C33.6636 17.574 34.7771 15.9625 34.7771 15.9625C34.2781 15.8172 33.8391 15.7891 33.4695 15.8454L32.5824 16.5668Z" fill="#ED975D"/>
<path d="M31.8517 16.5224C31.8517 16.5224 34.8873 17.0331 35.1737 15.1123C35.4602 13.1916 36.0424 11.9595 34.1157 11.5519C32.189 11.1443 31.7039 11.8189 31.4544 12.4373C31.2049 13.0557 31.0663 16.3397 31.8517 16.5224Z" fill="#FFB27D"/>
<path d="M45.1769 41.3981L38.9764 42.2929C38.1678 42.41 37.4147 41.8338 37.2992 41.0186L36.9157 38.2921C36.8002 37.4723 37.3685 36.7087 38.1724 36.5915L44.3729 35.6968C45.1815 35.5796 45.9346 36.1559 46.0501 36.971L46.4336 39.6975C46.5537 40.5127 45.9854 41.281 45.1769 41.3981Z" fill="#233862"/>
<path d="M37.7342 38.1689L38.1223 40.9235C38.1962 41.4575 38.5427 41.8885 39.0002 42.09C39.1526 42.1556 39.3143 42.2024 39.4853 42.2118C39.5916 42.2212 39.6978 42.2165 39.8087 42.2024L46 41.3076C46.8085 41.1905 47.3768 40.4222 47.2613 39.6024L46.8732 36.8477C46.7577 36.0279 46 35.4517 45.1914 35.5688L43.0614 35.878L42.9783 35.2877C42.9413 35.016 42.6918 34.8286 42.4238 34.8661L42.1882 34.8989L40.8899 35.0863L40.5664 35.1331C40.4371 35.1519 40.3216 35.2221 40.243 35.3252C40.1645 35.433 40.1321 35.5641 40.1506 35.6953L40.2338 36.2856L39.0002 36.4636C38.9493 36.473 38.9031 36.4823 38.8569 36.4917C38.381 36.6088 38.0022 36.9602 37.8312 37.4005C37.7342 37.6395 37.6972 37.9018 37.7342 38.1689ZM42.7519 35.9202L40.5387 36.2387L40.4556 35.6485C40.4417 35.5454 40.511 35.4517 40.6127 35.4376L41.1671 35.358L42.1882 35.2081L42.4654 35.1706C42.4839 35.1659 42.5024 35.1706 42.5209 35.1706C42.5994 35.1847 42.6595 35.2456 42.6733 35.3299L42.7519 35.9202Z" fill="#2B478B"/>
<path d="M40.4646 33.2853C40.4646 33.2853 40.788 33.7257 40.8019 33.899C40.8897 35.0889 40.3537 35.2529 41.7444 35.9181C41.7444 35.9181 42.3359 36.1477 42.3497 35.6792C42.359 35.2107 41.9385 35.206 42.017 34.5502C42.1048 33.7959 42.0956 33.7866 41.6105 33.393L41.287 32.8496L40.4646 33.2853Z" fill="#FFB27D"/>
<path d="M41.2914 33.6231C40.7693 33.7262 40.201 33.684 40.201 33.684C40.201 33.684 38.6486 28.8166 38.4453 28.3715C38.2466 27.9265 33.8296 22.6608 33.8296 22.6608L35.6223 17.7559C35.6223 17.7559 36.6711 18.3789 37.7846 20.3231C39.1568 22.7264 40.6677 26.5913 40.9357 27.2191C41.7396 29.0977 42.0168 33.3093 42.0168 33.3093C42.0168 33.3093 41.7027 33.5435 41.2914 33.6231Z" fill="#C1C765"/>
<path d="M35.1738 14.9269C35.1738 14.9269 34.8643 14.8753 34.9105 14.4397C34.9613 14.004 34.9613 13.4371 34.6101 13.5402C34.259 13.6479 34.2451 13.929 34.1019 13.7651C33.9587 13.6011 33.9541 12.9031 32.9191 12.8515C31.8795 12.8047 31.4591 13.1701 30.9739 12.9546C30.4888 12.7391 30.4657 11.9989 30.4657 11.9989C30.4657 11.9989 30.6043 12.2659 30.8122 12.3456C30.8122 12.3456 30.0083 11.2259 30.9416 10.4623C31.8749 9.694 32.8267 10.2 33.3673 10.2327C34.5547 10.3077 35.3263 10.378 35.7144 11.1697C36.0979 11.9614 35.9408 14.1633 35.1738 14.9269Z" fill="#2B478B"/>
<path d="M40.9769 33.8086C40.9769 33.8086 40.6628 34.1412 40.6443 34.2771C40.5796 34.7221 40.4364 34.9095 40.5103 34.961C40.6628 35.0594 40.8614 34.7315 40.9585 34.441C41.0509 34.1459 40.9769 33.8086 40.9769 33.8086Z" fill="#FFB27D"/>
<path d="M19.5237 34.9031C19.5237 34.9031 19.3389 35.573 19.4036 35.7885C19.8379 37.2361 20.5864 38.1824 18.5719 37.9388C18.5719 37.9388 18.3128 37.9408 18.2716 37.1189C17.828 36.271 17.8326 36.2569 18.2346 35.5683L18.3732 34.7812L19.5237 34.9031Z" fill="#FFB27D"/>
<path d="M22.06 33.1787C21.4501 33.1413 20.7109 32.982 20.4429 32.654C20.138 32.2839 19.833 32.1856 19.833 32.1856L19.9254 31.7827L20.0363 31.3001C20.0363 31.3001 20.0733 31.258 20.198 31.2627C20.198 31.2627 20.6739 31.3704 20.8541 31.2346C21.0297 31.094 21.3531 31.1783 21.5518 31.3142C21.8059 31.4829 22.1478 31.4594 22.1386 31.5391C22.1386 31.5391 21.6349 31.7874 21.6811 31.8295C22.1432 32.2418 23.3537 32.4104 23.2752 32.7337C23.2428 32.8649 22.3188 33.1928 22.06 33.1787Z" fill="#FFB27D"/>
<path d="M13.5865 17.4289V17.7662C13.5865 17.7662 13.6743 18.8156 12.4037 18.9655C11.1331 19.1201 10.0889 19.0967 10.1212 18.2909C10.2367 17.6632 10.44 16.6934 10.4493 16.1734C10.4539 15.9814 10.44 15.7752 10.4031 15.5457L12.8703 15.4941L13.5957 15.6159L13.5865 17.4289Z" fill="#FFB27D"/>
<path d="M13.596 15.6159L13.5867 17.4289C13.3234 17.5507 13.0277 17.6257 12.6996 17.6257C11.5676 17.6257 10.833 16.7824 10.4495 16.1734C10.4541 15.9814 10.4403 15.7752 10.4033 15.5457L12.8706 15.4941L13.596 15.6159Z" fill="#E2915A"/>
<path d="M10.2141 15.1465C10.5006 16.7066 12.4873 16.655 13.3467 16.5566C13.587 16.5285 13.7394 16.5004 13.7394 16.5004C14.012 16.4255 14.1645 15.9898 14.2338 15.4229C14.3724 14.2939 14.1968 12.6402 14.0074 12.2139C13.7256 11.5767 13.1896 10.8881 11.189 11.3847C9.193 11.8813 9.84909 13.1461 10.2141 15.1465Z" fill="#FFB27D"/>
<path d="M13.3928 47.6875C13.4714 48.1185 13.5176 48.4745 13.5314 48.7322C13.707 52.2364 16.4376 60.2426 16.9274 60.43C17.6851 60.7205 18.8725 60.1068 19.4963 59.9053C19.755 59.821 19.9306 59.5587 19.8705 59.2916C18.5168 52.9906 18.0224 43.9163 17.8422 38.5429C17.7498 35.8351 17.2924 33.9659 17.2924 33.9659C17.2924 33.9659 10.6345 32.1622 10.5929 34.4437C10.5605 36.4535 12.8014 44.3613 13.3928 47.6875Z" fill="#2B478B"/>
<path d="M13.3928 47.6871L17.8422 38.5331C17.7498 35.8253 17.2924 33.9561 17.2924 33.9561C17.2924 33.9561 10.6345 32.1525 10.5929 34.4339C10.5605 36.4531 12.8014 44.3609 13.3928 47.6871Z" fill="#233862"/>
<path d="M14.8755 34.4445L11.3548 60.3137C11.3548 60.3137 9.80694 60.6932 8.60565 60.3887C8.60565 60.3887 7.57531 46.6296 7.6631 43.3034C7.75089 39.9772 6.92384 34.4024 7.85253 33.7887C8.7766 33.175 14.8755 34.4445 14.8755 34.4445Z" fill="#2B478B"/>
<path d="M14.0856 12.4545C13.5358 12.6278 12.3715 12.4498 11.8863 12.848C11.4012 13.2462 11.8632 13.9021 11.3088 14.141C11.1979 14.1879 11.0639 14.1551 10.99 14.0614C10.8375 13.8646 10.625 13.6725 10.4309 13.7522C10.2692 13.8178 10.2646 14.0286 10.3339 14.23C10.3939 14.3987 10.3755 14.5908 10.2738 14.7407C10.2276 14.8063 10.1999 14.8765 10.2138 14.9468C10.26 15.2045 10.3847 15.5418 10.4309 15.7104L10.4448 15.8884C10.4448 15.8884 9.51609 14.8672 9.12336 14.0098C8.85076 13.4196 8.85538 11.2177 10.1722 10.5712C10.1676 10.5665 10.1629 10.5619 10.1583 10.5572C10.1306 10.5056 10.052 10.515 10.052 10.515C10.1629 10.4635 10.3385 10.4963 10.3385 10.4963C10.3339 10.4916 10.3431 10.4869 10.357 10.4728C10.3801 10.3229 10.5372 10.2105 10.5372 10.2105C10.4864 10.2855 10.4633 10.3651 10.454 10.4213C10.8005 10.2386 11.8632 9.82635 12.7087 10.2011C13.277 10.4541 13.8038 10.5853 14.1595 10.6556C14.4506 10.7118 14.6585 10.9788 14.6493 11.2786C14.6262 11.7003 14.483 12.3093 14.0856 12.4545Z" fill="#233862"/>
<path d="M9.82068 18.7461L10.6292 36.3748C10.6292 36.3748 17.3934 36.4873 17.1994 34.9366C17.0053 33.386 14.7598 19.2848 14.7598 19.2848" fill="#E9F3FE"/>
<path d="M12.0478 29.7826C12.0478 29.7826 11.7059 34.4908 11.0452 37.4469C11.0452 37.4469 7.09943 37.6577 6.1615 36.1117C6.1615 36.1117 6.90537 29.7498 6.90537 28.4615C6.90537 28.0071 6.87303 27.3934 6.81759 26.7C6.73442 25.6553 6.60967 24.4467 6.48954 23.3926C6.32321 21.9263 6.16612 20.7598 6.16612 20.7598L9.41884 18.0801L12.0478 29.7826Z" fill="#22407A"/>
<path d="M19.884 35.3583C19.884 35.3583 19.1493 35.8267 17.9896 35.6674C17.5692 36.7168 16.5712 37.0729 16.5712 36.9792C16.5712 36.9698 16.3494 34.9975 16.0814 32.6739C16.0537 32.4397 16.0306 32.2054 16.0029 31.9712C16.0029 31.9524 15.9982 31.929 15.9936 31.9103C15.9474 31.5214 15.9058 31.1279 15.8596 30.7344C15.5408 27.9376 15.2359 25.2579 15.2359 25.2579C14.5428 20.962 13.9561 18.123 13.9561 18.123C15.4346 18.2776 16.4279 18.8117 16.8253 19.5097C18.0035 21.5804 18.8582 26.7617 19.3572 30.6407C19.3572 30.6501 19.3572 30.6594 19.3619 30.6688C19.4496 31.3387 19.5236 31.9665 19.5883 32.538C19.5929 32.5755 19.5975 32.6083 19.6021 32.6411C19.7869 34.2667 19.884 35.3583 19.884 35.3583Z" fill="#22407A"/>
<path d="M10.2736 17.4629C10.2736 17.4629 12.3805 26.4155 12.0478 29.7885C12.0478 29.7885 11.2716 26.1859 9.40962 23.2345C9.40962 23.2345 10.0888 22.6255 10.0518 22.4053C10.0518 22.4053 9.54823 22.2554 9.05847 22.3538C9.05847 22.3538 9.11392 18.4935 9.41886 18.086C9.7238 17.6784 10.2736 17.4629 10.2736 17.4629Z" fill="#233862"/>
<path d="M13.5868 17.7676C13.2726 17.7957 15.6752 26.514 15.8554 29.3108C15.8554 29.3108 15.6428 24.3216 15.6659 22.8833C15.6659 22.8833 14.7881 22.4149 14.7881 22.2462C14.7881 22.0822 15.7214 21.6372 15.7214 21.6372C15.7214 21.6372 15.13 18.564 14.8065 18.2267C14.4831 17.8894 13.5868 17.7676 13.5868 17.7676Z" fill="#233862"/>
<path d="M17.9846 36.0195C17.9846 36.0195 17.8368 36.221 17.9292 36.7222C18.0216 37.2235 17.9708 37.5046 18.1001 37.4156C18.2295 37.3266 18.4929 36.7222 18.4929 36.7222L17.9846 36.0195Z" fill="#FFB27D"/>
<path d="M11.794 31.1648C9.34062 30.7947 7.7004 28.4664 6.81791 26.7049C6.73475 25.6602 6.61 24.4515 6.48987 23.3975L7.06279 21.7344L11.794 31.1648Z" fill="#233862"/>
<path d="M19.6021 32.6418C19.1124 32.7542 17.6292 33.0353 16.0768 32.6746C16.0491 32.4403 16.026 32.2061 15.9983 31.9719C15.9983 31.9531 15.9936 31.9297 15.989 31.911C16.0398 31.7095 16.0907 31.5081 16.1415 31.3066C17.0194 31.6252 18.983 32.3232 19.5883 32.5387C19.5975 32.5715 19.5975 32.6043 19.6021 32.6418Z" fill="#233862"/>
<path d="M9.41434 18.0859C9.41434 18.0859 7.25664 18.3623 6.27251 19.7537C5.28837 21.1451 7.40449 28.7344 11.7938 31.1658C13.9053 32.337 19.9949 32.5993 19.9949 32.5993C19.9949 32.5993 20.3276 32.6321 20.4616 31.9481C20.5078 31.7092 20.4616 31.3016 20.4616 31.3016C20.4616 31.3016 13.5311 28.6641 12.9212 28.1582C12.3067 27.6522 9.41434 18.0859 9.41434 18.0859Z" fill="#22407A"/>
</g>
</g>
</g>
<defs>
<clipPath id="clip0">
<rect width="43.5236" height="51.3356" fill="white" transform="translate(6.03674 10.0391)"/>
</clipPath>
</defs>
</svg>
