<svg width="32" height="31" viewBox="0 0 32 31" fill="none" xmlns="http://www.w3.org/2000/svg">
<path d="M12.7984 30.9996L2.28055 30.9507C1.01568 30.945 -0.00544198 29.9151 2.18248e-05 28.6502L0.111422 2.28147C0.116886 1.01569 1.14742 -0.00574306 2.4132 2.43037e-05L12.931 0.0485918C14.1962 0.0543591 15.217 1.08429 15.2116 2.34947L15.1002 28.7182C15.0947 29.9837 14.0642 31.0054 12.7984 30.9996Z" fill="#172166"/>
<path d="M14.5134 2.5702C14.5094 3.45594 14.4047 28.3081 14.4047 28.3081C14.4008 29.1944 13.6792 29.9099 12.7929 29.9059L2.296 29.8574C1.40995 29.8531 0.695102 29.1319 0.698744 28.2458L0.807414 2.50828C0.81136 1.62193 1.53319 0.906471 2.41954 0.910417L4.20438 0.918612L4.92136 0.921951C5.19485 0.923166 5.41583 1.15598 5.41462 1.44192L5.4128 1.81195C5.41189 2.09788 5.63256 2.3307 5.90606 2.33192C5.90606 2.33192 9.60779 2.34892 9.88098 2.35013C10.1542 2.35134 10.377 2.12065 10.3782 1.83471C10.3782 1.83471 10.3785 1.75093 10.3797 1.46499C10.3809 1.17905 10.6037 0.94836 10.8772 0.949574L12.9164 0.958984C13.8022 0.963234 14.5173 1.68446 14.5134 2.5702Z" fill="#FAFAFA"/>
<path d="M25.9001 17.9609L6.22366 17.8749L8.23903 16.5649V9.54521C8.23903 8.3981 8.90114 7.46834 9.71771 7.46834H25.9048C26.7217 7.46834 27.3838 8.3981 27.3838 9.54521V15.8845C27.3838 17.0338 26.7188 17.9649 25.9001 17.9609Z" fill="#DB631A"/>
<path d="M10.6244 14.1223L25.313 14.2177L25.3114 14.8516L10.6229 14.7562L10.6244 14.1223Z" fill="white"/>
<path d="M10.6244 12.0376L25.313 12.133L25.3114 12.7668L10.6229 12.6719L10.6244 12.0376Z" fill="white"/>
<path d="M10.6248 10.0031L16.4365 10.0435L16.4349 10.6774L10.6229 10.6374L10.6248 10.0031Z" fill="white"/>
<path d="M15.4834 27.9189L6.22391 27.8635L7.17232 27.0198V22.4983C7.17232 21.7594 7.4839 21.1605 7.86817 21.1605H15.4856C15.8701 21.1605 16.1816 21.7594 16.1816 22.4983V26.5815C16.1816 27.3218 15.8687 27.9215 15.4834 27.9189Z" fill="#DB631A"/>
<path d="M8.29476 25.4457L15.207 25.5071L15.2063 25.9154L8.29401 25.854L8.29476 25.4457Z" fill="white"/>
<path d="M8.29476 24.1036L15.207 24.1651L15.2063 24.5734L8.29401 24.5122L8.29476 24.1036Z" fill="white"/>
<path d="M8.29483 22.7923L11.0298 22.8183L11.029 23.2266L8.29394 23.2008L8.29483 22.7923Z" fill="white"/>
<path d="M24.9943 2.4893L24.9445 5.12927" stroke="black" stroke-width="0.622358" stroke-linecap="round"/>
<path d="M29.1793 3.73425L27.8959 6.04181" stroke="black" stroke-width="0.622358" stroke-linecap="round"/>
<path d="M32.4244 7.15954L29.8731 7.83977" stroke="black" stroke-width="0.622358" stroke-linecap="round"/>
</svg>
